<?xml version="1.0" standalone="no"?><!DOCTYPE svg PUBLIC "-//W3C//DTD SVG 1.1//EN" "http://www.w3.org/Graphics/SVG/1.1/DTD/svg11.dtd"><svg t="1730627521999" class="icon" viewBox="0 0 1218 1024" version="1.1" xmlns="http://www.w3.org/2000/svg" p-id="20399" width="38.0625" height="32" xmlns:xlink="http://www.w3.org/1999/xlink"><path d="M481.602574 107.709852c251.115915-44.283372 490.586359 123.355019 534.855395 374.423147 44.269036 251.068129-123.417141 490.495566-374.542613 534.774159-251.115915 44.283372-490.586359-123.355019-534.855395-374.423147C62.790925 391.415882 230.477102 151.988445 481.602574 107.709852z m4.974532 28.232023c-235.528092 41.530893-392.801679 266.087298-351.280343 501.562825 41.521336 235.475527 266.111191 392.696549 501.644061 351.170435 235.528092-41.530893 392.801679-266.087298 351.280343-501.562825-41.521336-235.475527-266.111191-392.696549-501.644061-351.170435z m4.233848 24.002954c222.267451-39.194153 434.217885 109.181664 473.397702 331.39655 39.184596 222.224444-109.239007 434.136648-331.50168 473.330802-222.267451 39.194153-434.217885-109.181664-473.397702-331.39655-39.184596-222.224444 109.239007-434.136648 331.50168-473.330802z m2.489655 14.116012C278.831848 211.883533 135.621708 416.360222 173.425286 630.781197c37.808356 214.420975 242.323274 357.588107 456.792035 319.774972 214.468761-37.817913 357.678901-242.299381 319.875323-456.720356-37.808356-214.420975-242.323274-357.592886-456.792035-319.774972z m118.667203 671.872458l19.367703 14.388392 22.339998-2.465762-7.45463 21.561084 10.876115 21.13101-23.63978-0.506532-16.409744 15.406236-7.024556-22.282655-20.715271-11.88918 18.58879-12.276247 4.071375-23.066346z m-136.4054-6.642267l14.001325 18.932849 22.856088 4.945861-13.33232 18.693919 3.163439 23.429521-22.23009-8.491588-19.898129 9.299173-0.511311-22.961217-16.08002-17.470595 22.077175-6.178742 9.953843-20.20396z m258.532316-45.912878l21.341269 9.686241 22.134518-8.247879-1.796757 23.319613 14.574758 17.771647-22.588486 4.243405-13.619036 19.018865-11.960859-19.697427-22.57415-6.298207 15.84109-17.246001-1.352347-22.550257z m68.907545-216.676478l15.396679-0.191144c-3.583957 113.520641-93.335795 211.907426-213.938335 233.177016-57.056594 10.058972-115.61845 1.691628-165.95632-23.615887l-2.733364-1.400133 8.544153-13.303648c48.015466 25.231057 103.858293 33.077533 158.434789 23.453414 112.421561-19.821671 195.598033-109.621296 200.14249-214.922728l0.109908-3.19689z m50.051153 110.801612l6.293429 22.526364 19.773885 11.712371-19.773885 11.71715-6.293429 22.521585-17.977128-14.412285-23.367399 1.801536 8.983786-21.623207-8.983786-20.724828 23.367399 1.801535 17.977128-15.320221zM397.393922 552.359441l40.331462 75.846085-109.339358 58.13656 25.159378 47.31301c3.249454 6.11662 7.870369 7.741347 13.867524 4.883739l0.78847-0.401403 88.069768-46.830371c2.838494-1.505262 4.931525-3.980581 6.279093-7.425959 0.387067-1.266331 0.20548-3.36892-0.525647-6.298207l-0.453968-1.677291-0.267602-0.903158-0.616441-1.921-0.716791-2.093031-0.831478-2.245947-0.936608-2.417976-1.041736-2.580449-1.146867-2.738143-1.906665-4.415435-1.400132-3.149103-1.505262-3.306798 21.092781-3.937574 1.572162 3.899345 1.467033 3.732094 1.361904 3.569621 1.256774 3.397591 1.691628 4.788167 0.998729 2.981852 0.888822 2.809822c0.281938 0.907936 0.544761 1.791978 0.78847 2.64735l0.683341 2.480098 0.573433 2.308068c0.095572 0.372732 0.176809 0.735906 0.253267 1.094302l0.430075 2.054802c0.740684 3.95191 0.86015 6.890755 0.372731 8.816534-2.035688 5.748667-6.279093 10.694527-12.448277 14.679887l-1.347568 0.841035-98.530143 52.387893c-14.875811 7.908598-26.363587 4.272077-34.788276-10.742313l-0.61644-1.118195-48.803936-91.797083 18.426317-9.796149 12.43872 23.391292 90.554645-48.149266-21.484627-40.403141-116.426036 61.902103-9.423417-17.719083 135.210748-71.894175z m497.467556 9.44731l10.106759 21.092781 21.503741 8.099743-17.437145 14.971383-2.284175 23.271827-20.213517-11.072038-22.698394 5.829903 5.098776-22.856088-12.453055-18.846835 23.32917-2.284175 15.04784-18.206501z m-352.52756 2.365412l8.200094 15.415793c0.731127 18.478882-0.081236 36.188408-2.891059 53.138135 7.980277 2.183824 15.573487 4.577908 22.774852 7.177471l3.564842 1.318896-6.04494 20.261303c-16.333286-7.406844-36.986435-13.552136-61.887768-18.679584l-3.421485-0.692898 5.91114-18.373752c7.038891 1.261553 14.163798 2.699914 21.121453 4.229069 1.070408-9.738806 1.734635-20.595806 1.925779-32.714359l0.038229-3.335469-45.893763 24.404357-9.141479-17.188657 65.744105-34.960305z m46.228266-43.447115l16.395408 30.836365c9.561997 19.68787 13.953539 37.359167 13.083832 52.822746-1.036958 13.647708-7.2826 27.338423-18.51711 40.756758l-1.428804 1.672514-17.943678-10.235781c11.162831-13.208076 17.231665-25.297957 17.766869-36.269644 0.23893-10.919122-2.962738-23.300499-9.299174-37.292267l-1.027401-2.222053-16.395408-30.831587 17.365466-9.237051z m38.850093 56.401924c15.258099 3.431041 29.302432 7.502416 41.860617 12.367041l3.106096 1.228103-6.221749 20.356875c-11.16761-5.653095-24.953897-10.522498-41.822388-14.746788l-3.010524-0.735906 6.092727-18.469325z m-36.135843-130.809649l9.237052 17.365466-33.670081 17.90067c1.543491 4.272077 2.962738 8.31478 4.272077 12.362262l0.9605 3.043975 32.60923-17.341573 46.07535 86.655299-18.077479 9.614562-37.034221-69.643451-39.867937 21.197911 37.970829 71.416315-18.0727 9.609783-47.021515-88.428164 25.345743-13.475678a303.499029 303.499029 0 0 0-3.865895-11.526005l-1.37146-3.870674-33.670081 17.90067-9.232273-17.365466 85.412861-45.415902z m179.379433-82.87542l8.950335 16.835041c12.864016 33.163548 19.563626 64.152829 20.189624 92.690683a192.147877 192.147877 0 0 0 45.511475 19.783442l3.493163 0.984394-4.678258 21.126231c-16.199485-5.246913-31.271219-11.78405-45.301216-19.783442a168.302617 168.302617 0 0 1-11.898737 47.872107l-1.280667 3.010524-20.309089-7.846476c7.913377-17.613954 12.567742-36.226637 13.6047-55.646905-23.912161-17.011849-44.355051-38.181088-61.500701-63.813548l-2.040466-3.101317-7.086677 3.770323-5.466729-10.27401-9.566776 5.08444 49.090653 92.32273 6.331657-5.724773c1.036958-0.931829 2.064359-1.858879 3.086982-2.766815l3.048752-2.6808 9.796149 18.426317-3.249454 2.790708-9.308731 8.209651 16.017898 30.124352-18.077478 9.614562-14.039554-26.406595c-13.547357 11.181946-27.849735 22.244426-42.553516 33.297349l-6.3221 4.740381-14.311934-15.802861a516.615444 516.615444 0 0 0 10.264452-7.086677l3.321134-2.413198L631.254279 447.105794l-12.23324 6.498908-9.232273-17.365466 85.771257-45.602267 5.275585 9.925171 69.820259-37.129794z m-296.316779 138.689576a703.172348 703.172348 0 0 1 51.097668 22.330441l6.283871 3.077424-5.25647 19.611413-4.921967-2.828937-4.754716-2.690357-4.577908-2.54222-4.410656-2.403641-4.233848-2.260282-4.061818-2.116924-1.95923-1.008286-3.803773-1.911444-3.626964-1.768085-3.450156-1.639063-3.278126-1.500484c-0.525647-0.23893-1.051294-0.468304-1.572162-0.697677l-3.010524-1.295003c-0.511311 19.788221-3.048753 39.863158-7.464188 60.148355l-0.979615 4.348534-18.545782-9.232273c5.003204-19.558848 7.894262-40.81888 8.601496-63.918677l0.10513-4.353313 13.819738-7.349501z m15.87454 42.247684c11.707593 5.657873 21.374719 11.205839 29.001379 16.290279l1.600834 1.079966-8.123636 16.366736c-7.846476-5.686545-17.308123-11.492555-28.442282-17.188657l-2.819379-1.424026 8.783084-15.124298z m225.880079-43.724274l-25.87139 13.752837 12.811451 24.103305a619.102276 619.102276 0 0 0 18.779934-14.785017l4.549236-3.755987-10.274009-19.319917z m-20.447669-38.458247l-25.87139 13.762394 11.588127 21.790458 25.871391-13.752837-11.588128-21.800015zM516.90216 302.696223c57.395875-10.121094 116.559836-0.23893 168.49854 27.754162l2.776372 1.514819-8.429467 14.297599c-48.751371-28.00265-105.148517-37.273152-160.030844-27.591689C407.543688 338.449777 324.945427 434.614509 321.815438 548.656018l-0.0669 3.459714-16.400187 0.148136c1.003508-123.689521 90.277486-228.178591 211.549031-249.567645z m245.811659 87.697036l-30.296383 16.108692c13.265419 20.677042 28.781563 37.889593 46.185259 51.819239-1.61517-20.462005-6.403336-41.889288-14.503079-64.200615l-1.385797-3.727316z m-87.510671 33.345136l-25.87139 13.757616 11.588127 21.795236 25.876169-13.757616-11.592906-21.790458z m-419.867721 14.397949l10.240559 20.242189 22.359113 6.245642-16.572217 17.537496-0.210259 23.09024-20.748721-9.705355-22.803523 8.295665 3.889788-23.46775-13.308427-18.168272 23.190591-4.606579 13.963096-19.463276z m67.03433-117.697145l2.699914 22.521585 18.875507 13.513907-21.575421 10.818771-8.094964 21.623207-16.175592-16.218599h-24.265778l11.6837-20.724829-6.28865-21.623206 23.367399 3.603071 19.773885-13.513907zM666.042554 215.993137l10.235781 20.246967 22.363891 6.245643-16.576995 17.537496-0.20548 23.085461-20.748722-9.700577-22.803523 8.295666 3.889788-23.472529-13.308427-18.168272 23.190591-4.60658 13.963096-19.463275z m-275.687523 17.996242l20.724828 11.37309 23.204926-5.935032-5.170455 22.086732 13.112504 19.152665-23.969504 2.790708-15.004833 17.551832-9.652791-20.772614-22.803523-8.295666 18.0727-15.482694 1.481369-22.469021z m135.788959-36.092835l16.543546 15.520923 23.147583-1.777643-9.571555 22.148854 7.703118 21.761786-22.817859-2.02613-18.58879 15.59738-4.377206-23.386513-18.722591-12.519956 20.223075-12.257133 6.460679-23.061568z" fill="#000000" p-id="20400"></path></svg>