<?xml version="1.0" standalone="no"?><!DOCTYPE svg PUBLIC "-//W3C//DTD SVG 1.1//EN" "http://www.w3.org/Graphics/SVG/1.1/DTD/svg11.dtd"><svg height="1024" node-id="1" sillyvg="true" template-height="1024" template-width="1024" version="1.1" viewBox="0 0 1024 1024" width="1024" xmlns="http://www.w3.org/2000/svg" xmlns:xlink="http://www.w3.org/1999/xlink"><defs node-id="15"></defs><g node-id="17"><path d="M 371.10 429.80 L 374.80 430.00 L 378.30 430.70 L 381.60 431.90 L 384.80 433.50 L 387.70 435.40 L 390.30 437.70 L 392.60 440.30 L 394.50 443.20 L 396.10 446.30 L 397.20 449.60 L 397.90 453.20 L 398.20 456.90 L 397.90 460.60 L 397.20 464.10 L 396.10 467.50 L 394.50 470.60 L 392.60 473.50 L 390.30 476.10 L 387.70 478.40 L 384.80 480.30 L 381.60 481.90 L 378.30 483.00 L 374.80 483.70 L 371.10 484.00 L 367.40 483.70 L 363.90 483.00 L 360.50 481.90 L 357.40 480.30 L 354.50 478.40 L 351.90 476.10 L 349.60 473.50 L 347.70 470.60 L 346.10 467.50 L 345.00 464.10 L 344.30 460.60 L 344.00 456.90 L 344.30 453.20 L 345.00 449.60 L 346.10 446.30 L 347.70 443.20 L 349.60 440.30 L 351.90 437.70 L 354.50 435.40 L 357.40 433.50 L 360.50 431.90 L 363.90 430.70 L 367.40 430.00 L 371.10 429.80 Z" fill="#cacaca" fill-rule="evenodd" group-id="1" id="矩形备份-18" node-id="6" stroke="none" target-height="54.200012" target-width="54.200012" target-x="344" target-y="429.8"></path><path d="M 736.90 423.00 L 740.60 423.30 L 744.10 424.00 L 747.50 425.10 L 750.60 426.70 L 753.50 428.60 L 756.10 430.90 L 758.40 433.50 L 760.30 436.40 L 761.90 439.50 L 763.00 442.90 L 763.70 446.40 L 764.00 450.10 L 763.70 453.80 L 763.00 457.40 L 761.90 460.70 L 760.30 463.80 L 758.40 466.70 L 756.10 469.30 L 753.50 471.60 L 750.60 473.50 L 747.50 475.10 L 744.10 476.30 L 740.60 477.00 L 736.90 477.20 L 733.20 477.00 L 729.70 476.30 L 726.40 475.10 L 723.20 473.50 L 720.30 471.60 L 717.70 469.30 L 715.40 466.70 L 713.50 463.80 L 711.90 460.70 L 710.80 457.40 L 710.10 453.80 L 709.80 450.10 L 710.10 446.40 L 710.80 442.90 L 711.90 439.50 L 713.50 436.40 L 715.40 433.50 L 717.70 430.90 L 720.30 428.60 L 723.20 426.70 L 726.40 425.10 L 729.70 424.00 L 733.20 423.30 L 736.90 423.00 Z" fill="#cacaca" fill-rule="evenodd" group-id="1" id="矩形备份-19" node-id="7" stroke="none" target-height="54.200012" target-width="54.200012" target-x="709.8" target-y="423"></path></g><g node-id="18"><path d="M 201.60 252.70 L 878.80 252.70 L 883.50 253.00 L 888.00 253.60 L 892.30 254.70 L 896.40 256.30 L 900.40 258.20 L 904.10 260.40 L 907.50 263.00 L 910.80 265.90 L 913.70 269.20 L 916.30 272.60 L 918.50 276.30 L 920.40 280.30 L 922.00 284.40 L 923.10 288.70 L 923.70 293.20 L 924.00 297.90 L 924.00 939.70 L 923.70 945.00 L 922.90 950.10 L 921.70 955.00 L 920.00 959.70 L 917.80 964.20 L 915.20 968.40 L 912.30 972.30 L 909.00 976.00 L 905.30 979.30 L 901.40 982.20 L 897.20 984.80 L 892.70 987.00 L 888.00 988.70 L 883.10 989.90 L 878.00 990.70 L 872.70 991.00 L 207.70 991.00 L 202.40 990.70 L 197.30 989.90 L 192.40 988.70 L 187.80 987.00 L 183.20 984.80 L 179.00 982.20 L 175.10 979.30 L 171.50 976.00 L 168.10 972.30 L 165.20 968.40 L 162.70 964.20 L 160.50 959.70 L 158.70 955.00 L 157.50 950.10 L 156.70 945.00 L 156.40 939.70 L 156.40 297.90 L 156.70 293.20 L 157.40 288.70 L 158.50 284.40 L 160.00 280.30 L 161.90 276.30 L 164.20 272.60 L 166.70 269.20 L 169.70 265.90 L 172.90 263.00 L 176.30 260.40 L 180.10 258.20 L 184.00 256.30 L 188.20 254.70 L 192.40 253.60 L 196.90 253.00 L 201.60 252.70 Z" fill="#404040" fill-opacity="0.04" fill-rule="evenodd" group-id="2" id="矩形" node-id="9" stroke="none" target-height="738.3" target-width="767.6" target-x="156.4" target-y="252.7"></path><path d="M 822.40 264.00 L 827.00 264.30 L 831.40 265.20 L 835.60 266.70 L 839.50 268.60 L 843.10 271.10 L 846.30 273.90 L 849.20 277.20 L 851.60 280.80 L 853.60 284.70 L 855.10 288.80 L 855.90 293.20 L 856.30 297.90 L 856.30 939.70 L 855.40 947.80 L 854.50 951.60 L 853.10 955.30 L 849.40 962.10 L 844.60 968.00 L 838.60 972.90 L 831.80 976.60 L 828.20 977.90 L 824.40 978.90 L 816.30 979.70 L 151.30 979.70 L 143.20 978.90 L 135.70 976.60 L 128.90 972.90 L 123.00 968.00 L 118.10 962.10 L 114.40 955.30 L 112.10 947.80 L 111.30 939.70 L 111.30 297.90 L 111.60 293.20 L 112.50 288.80 L 114.00 284.70 L 115.90 280.80 L 118.30 277.20 L 121.20 273.90 L 124.50 271.10 L 128.10 268.60 L 132.00 266.70 L 136.10 265.20 L 140.50 264.30 L 145.20 264.00 Z" fill="#ffffff" fill-rule="evenodd" group-id="2" id="矩形" node-id="10" stroke="#cacaca" stroke-linecap="butt" stroke-width="22.588236" target-height="715.7" target-width="745" target-x="111.3" target-y="264"></path><path d="M 312.20 394.30 L 318.20 187.30 L 318.70 178.80 L 319.60 170.40 L 321.00 162.20 L 322.80 154.20 L 325.10 146.30 L 327.70 138.60 L 330.80 131.00 L 334.20 123.70 L 338.00 116.60 L 342.20 109.60 L 346.80 102.90 L 351.70 96.50 L 356.90 90.30 L 362.40 84.40 L 368.20 78.70 L 375.90 72.00 L 384.00 65.80 L 392.50 60.00 L 401.50 54.80 L 408.90 51.00 L 416.40 47.60 L 424.20 44.50 L 432.30 41.80 L 440.50 39.40 L 448.80 37.50 L 457.30 36.00 L 465.90 34.90 L 474.80 34.20 L 483.80 34.00 L 492.80 34.20 L 501.70 34.90 L 510.30 36.00 L 518.80 37.50 L 527.10 39.40 L 535.30 41.80 L 543.40 44.50 L 551.10 47.60 L 558.70 51.00 L 566.10 54.80 L 575.10 60.00 L 583.60 65.80 L 591.70 72.00 L 599.40 78.70 L 605.20 84.40 L 610.70 90.30 L 615.90 96.50 L 620.80 102.90 L 625.40 109.60 L 629.60 116.60 L 633.40 123.70 L 636.80 131.00 L 639.90 138.60 L 642.50 146.30 L 644.80 154.20 L 646.60 162.20 L 648.00 170.40 L 648.90 178.80 L 649.40 187.30 L 655.40 395.20" fill="none" group-id="2" id="路径" node-id="11" stroke="#cacaca" stroke-linecap="butt" stroke-width="22.588236" target-height="361.2" target-width="343.2" target-x="312.2" target-y="34"></path><path d="M 313.30 370.10 L 316.90 370.30 L 320.40 371.00 L 323.70 372.20 L 326.90 373.70 L 329.80 375.70 L 332.50 378.00 L 334.90 380.70 L 336.80 383.70 L 338.40 386.80 L 339.50 390.20 L 340.20 393.60 L 340.40 397.20 L 340.20 400.80 L 339.50 404.20 L 338.40 407.60 L 336.80 410.70 L 334.90 413.70 L 332.50 416.40 L 329.80 418.70 L 326.90 420.70 L 323.70 422.20 L 320.40 423.40 L 316.90 424.10 L 313.30 424.30 L 309.80 424.10 L 306.30 423.40 L 303.00 422.20 L 299.80 420.70 L 296.90 418.70 L 294.20 416.40 L 291.80 413.70 L 289.90 410.70 L 288.30 407.60 L 287.20 404.20 L 286.50 400.80 L 286.20 397.20 L 286.50 393.60 L 287.20 390.20 L 288.30 386.80 L 289.90 383.70 L 291.80 380.70 L 294.20 378.00 L 296.90 375.70 L 299.80 373.70 L 303.00 372.20 L 306.30 371.00 L 309.80 370.30 L 313.30 370.10 Z" fill="#cacaca" fill-rule="evenodd" group-id="2" id="矩形备份-18" node-id="12" stroke="none" target-height="54.19998" target-width="54.19998" target-x="286.2" target-y="370.1"></path><path d="M 652.00 370.10 L 655.70 370.40 L 659.20 371.10 L 662.50 372.20 L 665.70 373.80 L 668.50 375.70 L 671.10 378.00 L 673.40 380.60 L 675.30 383.50 L 676.90 386.70 L 678.10 390.00 L 678.80 393.50 L 679.10 397.20 L 678.80 400.90 L 678.10 404.40 L 676.90 407.70 L 675.30 410.90 L 673.40 413.80 L 671.10 416.40 L 668.50 418.70 L 665.70 420.60 L 662.50 422.20 L 659.20 423.30 L 655.70 424.00 L 652.00 424.30 L 648.20 424.00 L 644.70 423.30 L 641.40 422.20 L 638.30 420.60 L 635.40 418.70 L 632.80 416.40 L 630.50 413.80 L 628.60 410.90 L 627.00 407.70 L 625.80 404.40 L 625.10 400.90 L 624.90 397.20 L 625.10 393.50 L 625.80 390.00 L 627.00 386.70 L 628.60 383.50 L 630.50 380.60 L 632.80 378.00 L 635.40 375.70 L 638.30 373.80 L 641.40 372.20 L 644.70 371.10 L 648.20 370.40 L 652.00 370.10 Z" fill="#cacaca" fill-rule="evenodd" group-id="2" id="矩形备份-19" node-id="13" stroke="none" target-height="54.19998" target-width="54.19995" target-x="624.9" target-y="370.1"></path></g></svg>