<?xml version="1.0" standalone="no"?><!DOCTYPE svg PUBLIC "-//W3C//DTD SVG 1.1//EN" "http://www.w3.org/Graphics/SVG/1.1/DTD/svg11.dtd"><svg t="1719469939296" class="icon" viewBox="0 0 1372 1024" version="1.1" xmlns="http://www.w3.org/2000/svg" p-id="6373" width="64.3125" height="48" xmlns:xlink="http://www.w3.org/1999/xlink"><path d="M346.35166 693.226213l-75.721532 44.097361s17.266383 12.440511 33.367149 12.91983c16.100766 0.468426 42.844596-12.887149 53.825361-10.348936 10.99166 2.505532 33.181957 17.506043 54.457192 15.305532 21.26434-2.200511 34.391149-21.133617 50.796936-16.329532 16.373106 4.814979 38.291064 12.320681 48.160681 15.185702 9.869617 2.865021 39.761702-15.316426 39.761702-15.316425l-2.363915-7.244256-202.294468-38.269276z" fill="#E0E4EC" p-id="6374"></path><path d="M389.337872 223.645957l257.427064 89.687149-31.656851 350.56749L337.702128 688.705362z" fill="#F4F7FA" p-id="6375"></path><path d="M393.728 212.283915l479.319149-5.305192-43.966638 487.227915-213.950639-30.306042 38.073192-350.56749zM353.192851 688.694468l261.926128-24.793872 213.950638 30.306042-9.913191 51.581277c-20.697872-9.259574-36.929362-13.889362-48.661788-13.889362-17.604085 0-16.26417 20.403745-48.40034 19.706553-32.13617-0.708085-40.818383-19.717447-61.788596-19.717446-20.981106 0-12.691064 14.978723-45.186723 12.723744-21.667404-1.514213-40.785702-5.75183-57.376681-12.712851L353.192851 688.694468z" fill="#F4F7FA" p-id="6376"></path><path d="M389.381447 216.804766l492.315234-5.305192 52.627064-134.133106-501.825362 33.388936z" fill="#E0E4EC" p-id="6377"></path><path d="M423.946894 131.202723l501.422297-31.003234 8.954554-22.833021L432.476596 110.755404z" fill="#FFFFFF" p-id="6378"></path><path d="M881.707574 211.499574l-48.215148 533.928852s22.549787-9.270468 30.066383-8.584171c7.516596 0.675404 36.657021 16.525617 47.550638 17.821958 10.882723 1.285447 55.68817-17.756596 63.847489-14.749958 8.202894 3.028426 25.240511 14.009191 40.600511 16.057192 15.36 2.048 46.907915-17.408 52.605276-17.887319 5.664681-0.468426 15.937362-2.603574 15.937362-2.603575l3.878128-1.318127 38.617872-414.916086-244.888511-107.737872z" fill="#E0E4EC" p-id="6379"></path><path d="M222.937872 309.095489s-4.008851 3.180936-8.257361 4.738724c-4.248511 1.568681-6.318298 0.860596-18.573617-2.897702-12.266213-3.780085-42.180085-10.893617-63.814809-0.729873-21.656511 10.152851-23.421277 15.24017-36.057872 21.297022-12.636596 6.045957-23.486638 9.913191-23.486639 9.913191s37.408681 25.512851 76.76732 20.839489c39.391319-4.684255 62.943319-36.243064 65.29634-38.999149 2.363915-2.756085 5.501277-5.35966 8.43166-6.68868l2.821446-1.26366-3.126468-6.209362zM288.953191 878.570213a10.51234 10.51234 0 1 0 10.523235 10.501447 10.51234 10.51234 0 0 0-10.523235-10.512341m0-18.333957a28.835404 28.835404 0 1 1 0.021788 57.670808 28.835404 28.835404 0 0 1-0.021788-57.670808M112.781617 1008.825191c8.006809 0 14.564766-6.53617 14.564766-14.564765 0-8.017702-6.557957-14.564766-14.564766-14.564766-8.017702 0-14.564766 6.547064-14.564766 14.564766a14.597447 14.597447 0 0 0 14.564766 14.564765M414.807149 966.067745c8.017702 0 14.564766-6.53617 14.564766-14.542979 0-8.028596-6.547064-14.597447-14.564766-14.597447a14.597447 14.597447 0 0 0-14.564766 14.597447c0 8.006809 6.53617 14.542979 14.564766 14.542979M474.525957 878.733617h31.972766c4.978383 0 9.085277 4.085106 9.085277 9.085277v0.010893a9.128851 9.128851 0 0 1-9.085277 9.085277H474.525957a9.128851 9.128851 0 0 1-9.09617-9.085277V887.829787c0-5.011064 4.096-9.085277 9.09617-9.085276M593.113872 878.733617h176.945022c5.011064 0 9.085277 4.096 9.085276 9.085277v0.010893a9.117957 9.117957 0 0 1-9.085276 9.085277H593.113872a9.128851 9.128851 0 0 1-9.107063-9.085277V887.829787c0-5.011064 4.106894-9.085277 9.107063-9.085276M817.348085 878.733617h287.264681c5.011064 0 9.09617 4.096 9.09617 9.085277v0.010893a9.128851 9.128851 0 0 1-9.085276 9.085277H817.348085a9.128851 9.128851 0 0 1-9.085276-9.085277V887.829787c0-5.011064 4.074213-9.085277 9.085276-9.085276M1184.822468 878.733617h31.961872c5.011064 0 9.085277 4.085106 9.085277 9.085277v0.010893a9.117957 9.117957 0 0 1-9.085277 9.085277h-31.961872a9.117957 9.117957 0 0 1-9.085277-9.085277V887.829787c0-5.011064 4.085106-9.085277 9.085277-9.085276M903.995915 1023.716766a14.052766 14.052766 0 0 0 14.009191-14.009192 14.052766 14.052766 0 0 0-14.009191-14.020085 14.052766 14.052766 0 0 0-14.009192 14.020085c0 7.712681 6.285617 14.009191 14.009192 14.009192M657.081191 1000.611404h208.939575c5.00017 0 9.074383 4.106894 9.074383 9.085277v0.021787a9.128851 9.128851 0 0 1-9.074383 9.063489h-208.939575a9.128851 9.128851 0 0 1-9.107063-9.063489v-0.021787c0-5.00017 4.106894-9.085277 9.107063-9.085277M1338.629447 731.397447h18.682553c4.967489 0 9.063489 4.106894 9.063489 9.085276v0.021788a9.107064 9.107064 0 0 1-9.063489 9.063489h-18.682553a9.107064 9.107064 0 0 1-9.085277-9.063489v-0.021788c0-5.00017 4.085106-9.074383 9.085277-9.074383" fill="#CAD0DB" p-id="6380"></path><path d="M10.457872 746.866383a10.468766 10.468766 0 0 0 10.457873-10.446979c0-5.773617-4.706043-10.457872-10.457873-10.457872-5.773617 0-10.457872 4.684255-10.457872 10.457872 0 5.75183 4.684255 10.457872 10.457872 10.457873" fill="#CAD0DB" p-id="6381"></path><path d="M23.345021 742.203915a6.786723 6.786723 0 0 1 0-13.573447c0.021787 0 6.754043 0.043574 10.348936 1.034894 3.878128 1.056681 9.684426 2.95217 15.71949 5.926127 4.324766 2.16783 8.867404 4.902128 13.028766 8.377192 4.390128 3.638468 10.47966 5.011064 16.732596 4.923915 8.257362-0.141617 16.590979-2.79966 22.081361-6.209362l0.326809-0.196085 3.19183-2.048v-0.021787c11.155064-7.200681 20.948426-13.508085 40.175659-8.627745 8.94366 2.28766 15.022298 6.481702 20.915745 10.588596 6.350979 4.357447 12.462298 8.605957 22.331915 8.605957 32.637277 0 35.131915-36.014298 76.810893-15.392681 4.33566 2.16783 8.878298 4.902128 13.03966 8.377192 4.390128 3.638468 10.47966 5.011064 16.732596 4.923915 8.257362-0.141617 16.612766-2.79966 22.070468-6.209362l0.326808-0.196085 3.224511-2.048-0.021787-0.021787c6.939234-4.48817 13.355574-8.605957 21.841702-9.924085a6.743149 6.743149 0 0 1 4.684255-1.851915c0.010894 0 6.754043 0.032681 10.348936 1.024 3.867234 1.056681 9.673532 2.95217 15.730383 5.926127 4.313872 2.16783 8.856511 4.902128 13.017873 8.377192 4.379234 3.638468 10.47966 5.011064 16.721702 4.923915 8.268255-0.141617 16.62366-2.79966 22.081361-6.209362l0.326809-0.196085 3.202723-2.048v-0.021787c15.850213-10.218213 22.713191-13.07234 40.164766-8.627745 8.97634 2.28766 15.033191 6.481702 20.948426 10.588596 6.318298 4.357447 12.440511 8.605957 22.310127 8.605957 21.046468 0 29.554383-14.935149 44.097362-20.076936a6.754043 6.754043 0 0 1 5.076426-2.276766c0.021787 0 6.764936 0.043574 10.348936 1.034894l0.098042 0.021787c4.923915 0.78434 10.577702 2.614468 17.211915 5.90434 4.324766 2.16783 8.867404 4.902128 13.006979 8.377192 4.041532 3.377021 9.542809 4.793191 15.272851 4.923915h0.27234c8.148426-0.217872 16.307745-2.854128 21.700086-6.209362l0.326808-0.196085 3.19183-2.048v-0.021787c8.605957-5.533957 16.405787-10.577702 28.312511-10.348936 3.943489-0.076255 8.355404 0.435745 13.453617 1.721191 8.94366 2.28766 15.022298 6.481702 20.915744 10.588596 6.144 4.226723 12.091915 8.333617 21.395064 8.605957 32.027234-0.490213 34.750638-35.883574 76.179064-15.392681 4.313872 2.16783 8.878298 4.902128 13.017872 8.377192 4.390128 3.638468 10.47966 5.011064 16.721702 4.923915 8.279149-0.141617 16.645447-2.79966 22.103149-6.209362l0.305022-0.196085 3.22451-2.048-0.021787-0.021787c20.545362-13.246638 31.025021-15.47983 52.583489-4.825873 4.357447 2.16783 8.878298 4.902128 13.03966 8.377192 4.401021 3.638468 10.501447 5.011064 16.721702 4.923915 8.279149-0.141617 16.62366-2.79966 22.103149-6.209362l0.305021-0.196085 3.224511-2.048-0.021787-0.021787c15.850213-10.218213 22.724085-13.07234 40.186553-8.627745 8.954553 2.28766 15.033191 6.481702 20.926638 10.588596 6.340085 4.357447 12.462298 8.605957 22.331915 8.605957 32.637277 0 35.121021-36.014298 76.8-15.392681 4.33566 2.16783 8.856511 4.902128 13.03966 8.377192 4.390128 3.638468 10.47966 5.011064 16.732595 4.923915 8.257362-0.141617 16.590979-2.79966 22.070468-6.209362l0.326809-0.196085 3.202723-2.048v-0.021787c11.155064-7.200681 20.970213-13.508085 40.17566-8.627745 8.965447 2.28766 15.022298 6.481702 20.937532 10.588596 6.329191 4.357447 12.440511 8.605957 22.310128 8.605957 11.579915 0 21.547574-6.318298 30.589276-12.081021 5.599319-3.540426 10.926298-6.939234 16.656341-9.063489a6.808511 6.808511 0 0 1 8.714893 4.041531 6.808511 6.808511 0 0 1-4.030638 8.704c-4.324766 1.590468-9.074383 4.618894-14.074553 7.778043-10.643064 6.786723-22.331915 14.205277-37.855319 14.205277-14.030979 0-21.885277-5.446809-30.011915-11.057022-4.88034-3.377021-9.891404-6.862979-16.569192-8.551489-13.508085-3.453277-21.013787 1.383489-29.521702 6.862979h-0.021787l-3.19183 2.048-0.468426 0.305021c-7.244255 4.542638-18.235915 8.061277-29.06417 8.246468-9.183319 0.130723-18.410213-2.113362-25.567319-8.07217a52.61617 52.61617 0 0 0-10.370723-6.612426c-32.386723-16.013617-34.805106 16.830638-70.808511 16.830639-14.030979 0-21.89617-5.446809-30.033702-11.057022-15.828426-10.969872-24.663149-13.181277-40.077617-3.148255-10.63217 6.786723-22.342809 14.205277-37.844426 14.205277-14.030979 0-21.89617-5.446809-30.033702-11.057022-17.342638-12.01566-27.735149-13.529872-46.08-1.68851h-0.032681l-3.202723 2.048-0.457532 0.305021c-7.222468 4.542638-18.225021 8.061277-29.075064 8.246468-9.150638 0.130723-18.399319-2.113362-25.545532-8.07217a53.182638 53.182638 0 0 0-10.370723-6.612426c-8.170213-4.041532-14.444936-4.967489-19.826383-4.096-3.627574 1.699404-7.516596 4.150468-11.558128 6.721362-10.643064 6.786723-22.342809 14.205277-37.855319 14.205277H725.787234c-14.030979 0-21.885277-5.446809-30.011915-11.057022-4.869447-3.377021-9.891404-6.862979-16.569191-8.551489a35.513191 35.513191 0 0 0-7.745362-1.165617c-8.093957 0.217872-13.856681 3.965277-20.185872 8.028596h-0.032681l-3.202724 2.048-0.435744 0.305021c-7.255149 4.542638-18.246809 8.061277-29.096851 8.246468h-1.721192c-9.107064 0.108936-18.290383-2.146043-25.414808-8.07217a52.61617 52.61617 0 0 0-10.370724-6.612426 73.640851 73.640851 0 0 0-9.662638-3.943489c-22.331915-4.085106-28.247149 20.774128-59.588085 20.774128-14.020085 0-21.874383-5.446809-30.001021-11.057022-15.828426-10.969872-24.684936-13.181277-40.077617-3.148255-10.653957 6.786723-22.331915 14.205277-37.866213 14.205277-14.009191 0-21.89617-5.446809-29.990128-11.057022-4.891234-3.377021-9.913191-6.862979-16.623659-8.551489-13.508085-3.453277-20.959319 1.383489-29.489022 6.862979h-0.021787l-3.202723 2.048-0.457532 0.305021c-7.244255 4.542638-18.246809 8.061277-29.075064 8.246468-9.172426 0.130723-18.399319-2.113362-25.556426-8.07217a53.182638 53.182638 0 0 0-10.370723-6.612426c-32.386723-16.013617-34.826894 16.830638-70.808511 16.830639-14.041872 0-21.89617-5.446809-30.022808-11.057022-4.88034-3.377021-9.891404-6.862979-16.590979-8.551489-13.508085-3.453277-20.992 1.383489-29.499915 6.862979h-0.032681l-3.180936 2.048-0.479319 0.305021c-7.233362 4.542638-18.225021 8.061277-29.085957 8.246468-9.150638 0.130723-18.388426-2.113362-25.534639-8.07217a53.182638 53.182638 0 0 0-10.370723-6.612426 75.645277 75.645277 0 0 0-13.290213-5.043744c-1.742979-0.479319-6.77583-0.490213-6.77583-0.490213" fill="#CAD0DB" p-id="6382"></path><path d="M402.998468 197.675574c3.507745-10.719319 6.405447-22.549787 7.015489-33.410723 0.675404-12.01566-1.41617-22.778553-8.660425-29.107745-9.117957-7.95234-21.809021-8.682213-32.964085-4.662468a42.049362 42.049362 0 0 0-14.06366 8.442553l-0.174298 0.152511a33.149277 33.149277 0 0 0-8.660425 12.636596l-0.141617 0.326808c-3.257191 9.074383-1.841021 20.08783 7.385872 31.547915 6.939234 8.595064 15.675915 13.497191 25.501958 15.251064 7.647319 1.383489 16.013617 0.90417 24.761191-1.176511m-145.222808 116.997447a4.117787 4.117787 0 0 1-4.466383-3.714723 4.117787 4.117787 0 0 1 3.714723-4.455489c32.637277-3.050213 61.483574-13.464511 84.785021-28.475915 24.870128-16.013617 43.443745-37.25617 53.531234-60.274383 1.427064-3.31166 2.963064-7.04817 4.477277-11.057022-8.028596 1.41617-15.75217 1.557787-23.018213 0.228766-11.765106-2.102468-22.212085-7.963234-30.447659-18.19234-11.329362-14.020085-12.876255-27.876766-8.682213-39.511149l0.108936-0.337702c2.211404-6.002383 6.002383-11.351149 10.752-15.773958l0.27234-0.250553c4.793191-4.390128 10.621277-7.854298 16.830639-10.087489 13.736851-4.934809 29.521702-3.889021 41.101617 6.209362 9.48834 8.279149 12.288 21.395064 11.481872 35.741957-0.544681 9.815149-2.83234 20.283915-5.730042 30.099064 6.754043-2.396596 13.649702-5.697362 20.545361-9.738894v-0.021787c19.826383-11.579915 39.609191-29.325617 56.428936-50.873192C517.250723 98.478298 536.739404 52.332936 534.266553 6.318298a4.096 4.096 0 1 1 8.181107-0.413958c2.614468 48.117106-17.669447 96.201532-46.548426 133.326979-17.429787 22.419064-38.084085 40.851064-58.716596 52.932085v-0.021787c-9.33583 5.457702-18.70434 9.619064-27.811404 12.288a228.548085 228.548085 0 0 1-6.53617 16.590979c-10.697532 24.477957-30.338723 47.016851-56.592341 63.912851-24.33634 15.686809-54.446298 26.547745-88.477957 29.728681M1291.14417 616.339064s-3.028426-0.370383-5.479489-1.492426c-2.472851-1.154723-3.050213-2.32034-6.634213-9.085276-3.562213-6.786723-13.181277-22.440851-26.634894-27.310298-13.453617-4.84766-16.329532-3.475064-24.238297-6.252936-7.897872-2.777872-14.107234-5.740936-14.107234-5.740937s5.00017 26.613106 23.606468 41.275915c18.606298 14.684596 41.918638 11.329362 44.075574 11.133277 2.146043-0.152511 4.575319 0.076255 6.38366 0.75166l1.732085 0.66451 1.307234-3.943489z" fill="#CAD0DB" p-id="6383"></path></svg>