<?xml version="1.0" standalone="no"?><!DOCTYPE svg PUBLIC "-//W3C//DTD SVG 1.1//EN" "http://www.w3.org/Graphics/SVG/1.1/DTD/svg11.dtd"><svg t="1730619714074" class="icon" viewBox="0 0 1024 1024" version="1.1" xmlns="http://www.w3.org/2000/svg" p-id="15976" width="32" height="32" xmlns:xlink="http://www.w3.org/1999/xlink"><path d="M130.77504 0h761.56928v1024H130.77504z" fill="#D33131" p-id="15977"></path><path d="M130.77504 33.69472h761.56928v171.57632c0 115.61984-93.72672 209.34656-209.34144 209.34656h-342.8864C224.50176 414.6176 130.77504 320.89088 130.77504 205.27104V33.69984z" fill="#AA0707" p-id="15978"></path><path d="M130.77504 15.36h761.56928v166.92736c0 115.61472-93.72672 209.34144-209.34144 209.34144h-342.8864C224.50176 391.6288 130.77504 297.90208 130.77504 182.28736V15.36z" fill="#F25B57" p-id="15979"></path><path d="M354.8928 424.73984c0 86.59968 70.20544 156.80512 156.80512 156.80512s156.8-70.20544 156.8-156.80512-70.20032-156.8-156.8-156.8-156.80512 70.20032-156.80512 156.8z" fill="#C96602" p-id="15980"></path><path d="M354.8928 414.34112c0 86.59968 70.20544 156.80512 156.80512 156.80512s156.8-70.20544 156.8-156.80512-70.20032-156.8-156.8-156.8-156.80512 70.20032-156.80512 156.8z" fill="#FFE000" p-id="15981"></path><path d="M328.84736 593.536l-42.91072-15.98464 29.952-27.93472zM663.04 690.8416l40.6016 21.1968 0.7168-40.96zM356.39808 831.91296l-18.944 41.69216-25.7792-31.83104zM677.78048 621.65504l44.544-10.64448-13.43488-18.16576zM687.42656 873.90208l5.92896 45.40928 33.95584-22.90688zM401.53088 678.01088l-42.91072-15.98976 9.472-22.81472zM603.99616 647.29088l42.91584-15.98976-9.47712-22.81472z" fill="#FFE000" p-id="15982"></path><path d="M598.76352 778.57792c2.74944 0 5.07904-0.95232 6.98368-2.85696 1.90464-1.90464 2.85696-4.23424 2.85696-6.98368v-17.77664H530.19648v70.47168c0 2.74944 0.95232 5.07904 2.85696 6.98368 1.90464 1.90464 4.33664 2.85696 7.30112 2.85696h104.7552l-10.47552 30.1568H528.60928c-4.864 0-9.4208-0.90112-13.64992-2.69824a34.7904 34.7904 0 0 1-11.1104-7.45984 34.7904 34.7904 0 0 1-7.45984-11.1104 34.52928 34.52928 0 0 1-2.69824-13.64992v-105.70752h151.41888v53.01248c0 4.864-0.90112 9.4208-2.69824 13.64992a34.7904 34.7904 0 0 1-7.45984 11.1104 34.7904 34.7904 0 0 1-11.1104 7.45984 34.52928 34.52928 0 0 1-13.64992 2.69824H555.59168l11.1104-30.1568h32.06144zM413.696 805.24288h-41.2672l41.2672-52.3776V680.8064h-33.96608v-31.10912H413.696v-19.36384h40.31488v19.36384h35.55328v31.10912h-35.55328v27.29984h33.64864l21.90336-75.86816h119.67488l22.2208 76.1856h-41.90208l-14.60224-49.2032H543.8464l-14.60224 49.2032h-31.744l-43.48928 55.86944v62.21824c0 4.864-0.90112 9.4208-2.69824 13.64992a34.7904 34.7904 0 0 1-7.45984 11.1104 34.7904 34.7904 0 0 1-11.1104 7.45984 34.52928 34.52928 0 0 1-13.64992 2.69824h-33.01376l12.38016-27.29984h5.07904c2.74944 0 5.13024-1.00352 7.1424-3.01568 2.01216-2.01216 3.01568-4.39296 3.01568-7.1424v-18.72896z" fill="#FFE000" p-id="15983"></path></svg>