<?xml version="1.0" standalone="no"?><!DOCTYPE svg PUBLIC "-//W3C//DTD SVG 1.1//EN" "http://www.w3.org/Graphics/SVG/1.1/DTD/svg11.dtd"><svg t="1730130803442" class="icon" viewBox="0 0 6492 1024" version="1.1" xmlns="http://www.w3.org/2000/svg" p-id="7785" xmlns:xlink="http://www.w3.org/1999/xlink" width="202.875" height="32"><path d="M990.47679304 124.73588953L931.0619172 278.27801106l-13.73409308-68.68617507a65.35479343 65.35479343 0 0 0-18.08688634-34.90093511 43.41796013 43.41796013 0 0 0-31.00385018-13.41981202h-93.90724631l64.53766035 313.52700887L687.32106717 825.91314976h86.09735751q55.09350918 0 87.82590527-65.49622065l24.96964711-54.7635129 13.78123492 65.49621873a75.0189421 75.0189421 0 0 0 20.66399379 39.72515374 49.27930555 49.27930555 0 0 0 35.29378835 15.03836108h83.52025189l-67.97904072-338.1823768 148.9536137-380.07607148h-108.427044a24.02680391 24.02680391 0 0 0-21.51255344 17.17547351z m-30.15528862-134.21382229l6.89847408-27.92389265h-136.94806837a13.48266711 13.48266711 0 0 0-12.91696195 11.80126301l-43.05653536 165.3590978h91.31442744q49.92358286 0 72.28469409-66.58048918h150.71358998a36.23663155 36.23663155 0 0 0 27.56246977-13.41981205 60.51486146 60.51486146 0 0 0 14.62979266-33.81666657l4.30565336-35.43521365h-174.74039393z m-687.96173051 854.67223809a56.09920938 56.09920938 0 0 1-16.35834043-13.95408875 56.79062847 56.79062847 0 0 1-11.18841418-19.32829922 49.15359349 49.15359349 0 0 1-2.57710743-24.76536483l65.44907886-603.4200651H112.24917267a31.6795541 31.6795541 0 0 0-23.25681456 10.73270584 52.02926683 52.02926683 0 0 0-12.05268709 26.83962027l-4.28994007 42.01940859H131.20033575L47.75865409 974.12820258h112.7798391a103.71282411 103.71282411 0 0 0 33.58095574-3.14281264 41.26513251 41.26513251 0 0 0 24.10537421-22.54968211l3.44138041-6.44276577 727.56117219 30.06100316a63.61053233 63.61053233 0 0 0 48.24217685-22.56539542 124.32967613 124.32967613 0 0 0 28.41102756-68.71760355L289.73952782 849.64138591a42.11369218 42.11369218 0 0 1-17.28547036-4.30565335zM202.62075687 124.73588953l71.45184963 35.43521558 36.14234802-117.03835068L145.7672733-37.32325516a159.32489666 159.32489666 0 0 0 1.71283261 95.55722575 114.91695154 114.91695154 0 0 0 55.17207946 66.50191894zM414.4777705 303.10623287h257.49065644a67.72761665 67.72761665 0 0 0 52.51640175-25.77106503 110.1084481 110.1084481 0 0 0 26.71391013-63.34339304L776.16838597-5.04656546h-121.39114586l4.28994006-32.21383271h-125.71251433a22.98967524 22.98967524 0 0 0-17.64689323 8.04560154 37.71375338 37.71375338 0 0 0-9.03558655 20.94684637l-7.74703371 62.27483778h152.42642257l-6.03420112 53.69495765h-167.19764252l12.0526871-112.74841063h-111.83699587L354.2300483 213.85034757a93.40439811 93.40439811 0 0 0 12.91696003 63.34339304 55.40779026 55.40779026 0 0 0 47.34647545 25.77106501z m52.51640172-95.55722384l4.28994005-41.87798135h167.9047768l-5.15421302 41.81512437a29.76243728 29.76243728 0 0 1-7.74703374 18.25974209 19.94114809 19.94114809 0 0 1-14.64550782 7.51132296h-127.42534698a15.28978516 15.28978516 0 0 1-12.91696004-7.51132296 27.40532734 27.40532734 0 0 1-4.28994005-18.25974209zM290.47809064 825.94457635a149.59789105 149.59789105 0 0 0 107.18563108-45.57078586 232.25386811 232.25386811 0 0 0 63.28053607-119.72545499l24.96964903-120.25973358h72.28469409l-21.46541167 195.35724594a33.84809503 33.84809503 0 0 1-8.6113067 17.17547351 21.22970085 21.22970085 0 0 1-14.64550781 6.44276578 31.78955098 31.78955098 0 0 0-24.1053742 11.28269769 47.97503758 47.97503758 0 0 0-12.05268711 28.45817122l-3.4413804 26.83962029h138.59804592a67.7904736 67.7904736 0 0 0 51.66784399-26.83962029 109.84130882 109.84130882 0 0 0 27.54675458-62.27483776l31.00384829-273.80185319H502.30367577l6.89847409-34.36665844h188.56877057a30.46956971 30.46956971 0 0 0 23.57109562-11.28269959 54.3392331 54.3392331 0 0 0 12.57125239-28.44245605l3.42566521-30.06100505h-122.25541874a28.28531551 28.28531551 0 0 0-4.71421992-21.46541169 19.34401255 19.34401255 0 0 0-15.93406062-8.57987819h-136.96378356l-3.44138043 30.06100507h-85.12308573a31.78955098 31.78955098 0 0 0-24.10537421 11.28269771 47.88075403 47.88075403 0 0 0-12.0526871 28.44245603l-3.44138041 30.06100507h43.90509504l-82.65597707 397.28297158z m1327.64985567-106.30564296a68.84331558 68.84331558 0 0 1-44.76936799 60.12200824l-39.6151569 17.19118682 63.67338742 32.2138308a42.88368156 42.88368156 0 0 1 19.79972274 43.99938048l-9.42843978 102.01570481-211.80987183-98.79432191-229.03248523 98.79432191 9.42843786-102.01570481a52.50068845 52.50068845 0 0 1 29.27530242-43.99938048l66.29763661-28.99244791-31.00384828-16.10691636a46.89076715 46.89076715 0 0 1-25.833922-24.7653648 66.42334866 66.42334866 0 0 1-6.01848591-35.43521368l69.73901699-605.57289274h-30.13957533l9.42843787-67.69618816a37.85518062 37.85518062 0 0 1 9.42843976-20.4282849 22.17254405 22.17254405 0 0 1 16.35834044-8.5798782h7.74703375l2.57710556-25.77106503a42.42797325 42.42797325 0 0 1 10.32414119-23.5710975A26.71390823 26.71390823 0 0 1 1325.21778949-37.41753872h145.51223516l-6.0342011 59.05345297h61.12771031l2.57710554-24.7653648a43.4808152 43.4808152 0 0 1 10.32414121-24.76536482 26.71390823 26.71390823 0 0 1 20.66399378-9.66415057h147.22506781l-6.8827608 59.05345485h29.25958721l-11.18841225 79.4503075a31.61669715 31.61669715 0 0 1-6.03420113 12.90124673 14.14265774 14.14265774 0 0 1-10.32414122 4.28994009h-14.64550785l-68.87474219 601.28295264z m-172.19471494-13.95409063l66.29763661-587.32886203h-60.27915067l-67.14619628 587.32886203a11.31412619 11.31412619 0 0 0-0.86427296 4.28994007 9.42843787 9.42843787 0 0 0 0.86427296 3.14281262 19.09258845 19.09258845 0 0 0 13.78123489 16.09120306l13.78123298 8.5955915 15.4940675-8.5955915a25.72392323 25.72392323 0 0 0 16.35834238-16.09120306c0.56570708-2.85996002 1.14712743-5.35849533 1.72854588-7.51132294z m6.01848594-587.32886203l-67.14619628 587.32886203a11.31412619 11.31412619 0 0 0-0.86427296 4.28994007 11.31412619 11.31412619 0 0 1 0.86427296-4.28994007l67.14619628-587.32886203z m-67.14619628 594.840185a9.42843787 9.42843787 0 0 1-0.86427296-3.14281263 9.42843787 9.42843787 0 0 0 0.86427296 3.14281263z m0 0a21.04113183 21.04113183 0 0 0 13.78123489 16.09120305l13.78123298 8.59559149-13.78123298-8.59559149a19.09258845 19.09258845 0 0 1-13.78123489-16.09120305z m43.04082207 16.09120305a29.51101321 29.51101321 0 0 0 16.35834047-16.09120305 25.72392323 25.72392323 0 0 1-16.35834047 16.09120305l-15.49406745 8.59559149 15.49406745-8.59559149z m16.35834047-16.09120305c0.56570708-2.85996002 1.14712743-5.35849533 1.7285478-7.51132297l66.29763661-587.32886203-66.29763661 587.32886203c-0.58142036 2.15282763-1.16284073 4.71421989-1.7285478 7.51132297z m402.091475-642.0923769q-36.142348 0-58.55060286-42.93082331L1757.62169364-37.32325516h496.8001411l-8.6113086 74.07609887-178.21320089 299.58863535h149.80217337l-5.16992629 54.76351292a76.7474899 76.7474899 0 0 1-14.64550787 37.572328 35.6237827 35.6237827 0 0 1-29.2595872 16.10691635h-111.93127945l-46.48220248 400.47292597a154.90924457 154.90924457 0 0 1-41.34370281 91.26728377 104.73423759 104.73423759 0 0 1-78.3503237 38.67231366h-209.18562261l1.7285459-27.92389264a96.26435815 96.26435815 0 0 1 21.52826864-59.05345297 61.42627621 61.42627621 0 0 1 48.22646359-24.76536672h9.42843787q10.3398545 0 23.25681452-1.06855526a33.25095949 33.25095949 0 0 0 19.79972085-9.66415059 53.91495516 53.91495516 0 0 0 14.64550783-32.2138308l43.0408221-375.80184473h-174.74039393l6.03420118-61.20628055a65.05622564 65.05622564 0 0 1 13.78123297-32.21383272 29.85672275 29.85672275 0 0 1 24.96964903-15.03835916h141.19086669l3.4413804-26.8396203 136.96378356-238.36664142h-168.03048884z m439.99379739 904.07725571l228.98534345-834.27538169h-130.81958367l5.16992628-45.09936426a63.56339054 63.56339054 0 0 1 14.14265775-34.90093698 35.82806693 35.82806693 0 0 1 27.98674963-13.40409684h108.42704208l16.35834043-60.13772345a29.40101444 29.40101444 0 0 1 25.83392199-24.76536673h148.93790041l-22.39254157 84.85594836h664.70491596l-3.33138165 28.92959097a84.25881282 84.25881282 0 0 1-18.85687571 46.71791327 46.84362534 46.84362534 0 0 1-36.14234799 17.70975019H2684.89290881l-34.4452287 123.48111648h681.99038636l-10.32413933 111.66414014-300.50004999 322.13831749 284.94312554 277.03895126h-157.5806356a186.47879994 186.47879994 0 0 1-130.01816768-55.83207008l-112.77983915-111.66414017-118.82975353 121.32828883a164.10197164 164.10197164 0 0 1-111.06700462 46.2307784h-161.05344448l280.68461591-278.13893693-204.0156963-210.4113203-85.23308452 295.26726677q-68.02618443 193.28299046-208.36849142 193.28299046h-12.03697383z m488.1888325-533.63390629l136.96378359 141.74085852 225.51253642-234.06098616h-509.74852958l-19.79972089 74.07609884h132.57956a44.98936551 44.98936551 0 0 1 34.44522867 18.2597421z m631.09253364 533.63390629a1037.91393996 1037.91393996 0 0 0 52.09212192-120.79401217 1264.49503166 1264.49503166 0 0 0 42.61654227-139.03803902q19.78400755-61.20628059 64.53766223-61.2062806a60.45200451 60.45200451 0 0 1 55.51778903 37.05376272 102.51855489 102.51855489 0 0 1 5.60992129 81.06885842 1167.08354798 1167.08354798 0 0 1-46.93791078 112.74841064 636.21531818 636.21531818 0 0 1-51.22784897 90.19872852h-122.25541874z m906.70150495-117.03835069h167.88906157l-51.66784399-645.31375975h31.86812314a136.05236695 136.05236695 0 0 1 106.76135128 49.38930429 219.39976505 219.39976505 0 0 1 49.9392962 128.77675482l39.61515687 467.06913038h239.29376945l175.63609533-581.97036675a96.89292029 96.89292029 0 0 1 27.97103443-46.23077648 61.97626998 61.97626998 0 0 1 41.68941232-17.12833173h125.83822644l-194.58725845 645.31376165h200.5900311l-8.6113086 79.45030941a44.56508566 44.56508566 0 0 1-11.18841224 26.32105687 28.80387889 28.80387889 0 0 1-21.52826865 10.19842726h-965.25210784l8.6113067-75.16036933a48.96502449 48.96502449 0 0 1 12.47696694-28.9924479 32.52811378 32.52811378 0 0 1 24.54536922-11.801263z m88.674463-798.8558813h374.52900715l11.18841413-95.55722384h129.89245376a34.68093949 34.68093949 0 0 1 30.15528864 16.64119305 66.3290651 66.3290651 0 0 1 9.42843976 42.42797326l-4.28994007 36.50377083h406.38141509l-6.03420116 55.8320701a60.82914255 60.82914255 0 0 1-15.06978765 33.28238795 36.95947917 36.95947917 0 0 1-27.9710344 13.95409061h-949.63232831l6.89847412-64.42766348a46.68648482 46.68648482 0 0 1 12.0369738-27.37390076 30.23385889 30.23385889 0 0 1 22.39254158-11.28269772z m1238.95967935-6.44276578a21.18255908 21.18255908 0 0 0-14.62979454 6.44276578 44.58080086 44.58080086 0 0 0-9.42843786 17.17547163l-39.64658536 165.43766806h-159.40346698l49.09073655-201.86286865a109.00846244 109.00846244 0 0 1 31.00385019-53.69495767 70.60328998 70.60328998 0 0 1 46.48220057-19.312584h302.26002635a55.2820782 55.2820782 0 0 1 41.32798757 19.312584 84.71451924 84.71451924 0 0 1 18.85687764 53.69495767l5.10707121 201.86286865h-160.04774427l-3.44138042-165.35909782a35.98520746 35.98520746 0 0 0-5.16992628-17.17547159 15.91834732 15.91834732 0 0 0-12.93267523-6.44276576h-89.57016638z m234.13955645 410.13707464l-96.43721196 421.96976614a121.45400279 121.45400279 0 0 1-15.49406751 38.6565985 139.65088788 139.65088788 0 0 1-24.12108936 26.83962214 105.62993901 105.62993901 0 0 1-28.28531551 16.09120116 86.89877534 86.89877534 0 0 1-30.15528863 5.38992381h-210.22275127a81.6188503 81.6188503 0 0 1-54.24494954-21.46541167 86.27021319 86.27021319 0 0 1-25.83392201-65.49621875l-3.42566517-104.15281723h113.64411205a35.21521807 35.21521807 0 0 1 28.83530735 15.03835919 62.24340736 62.24340736 0 0 1 12.47696695 36.50377084v36.50377086a32.166689 32.166689 0 0 0 6.89847407 20.42828298 16.70405001 16.70405001 0 0 0 14.62979457 7.51132294h31.0038483a28.74102381 28.74102381 0 0 0 17.28547036-6.44276577 41.61084207 41.61084207 0 0 0 12.0526871-19.32829924l92.13155859-418.74838323h-314.28128303l8.6113067-79.46602266a26.11677459 26.11677459 0 0 1 6.89847409-16.09120118 17.58403815 17.58403815 0 0 1 12.91696004-6.44276766h458.11211415l-12.90124677 112.74841253z m-271.22474766-150.33645193l2.57710558-133.12955183h89.57016634a35.6709264 35.6709264 0 0 1 29.71529551 15.57263776 61.96055477 61.96055477 0 0 1 11.61269396 38.12231989l-0.86427483 79.45030937z m367.70910139 662.48923327h-130.86672733l216.9640848-322.13831553 43.05653732-387.6188229h164.3533957l-45.64935611 419.81694038-37.87089388 69.78615883h77.48605076l98.1500446 220.12261072h-154.98781486a26.50962595 26.50962595 0 0 1-24.1053742-16.10691633l-56.80634372-114.86980784-64.53766032 82.68740555a109.82559552 109.82559552 0 0 1-85.2330845 48.32074712z m9.42843787-1006.07724718h489.03739217l-6.88275893 62.27483584a25.36250039 25.36250039 0 0 1-6.89847407 16.64119496 19.12401691 19.12401691 0 0 1-13.7812349 5.9084872h-148.93790041l-6.89847408 61.20628058h87.82590526a58.70774341 58.70774341 0 0 1 52.51640172 31.12956223 114.71266925 114.71266925 0 0 1 14.64550784 74.07609888l-53.42781835 481.0389324h-129.98673923l52.51640362-474.56473814a31.16098881 31.16098881 0 0 0-3.42566708-18.25974397 15.03835918 15.03835918 0 0 0-12.91696003-8.57987824H6084.94498106a17.55260965 17.55260965 0 0 0-14.64550786 8.57987824 29.7152955 29.7152955 0 0 0-7.74703374 18.25974397l-52.51640175 474.56473814h-130.01816768l53.42781836-481.0389324a130.06530949 130.06530949 0 0 1 30.13957534-74.07609888 77.61176282 77.61176282 0 0 1 59.41487581-31.12956223h87.82590529l6.88276079-61.20628058h-167.08764563l6.03420116-60.12200825a33.20381767 33.20381767 0 0 1 8.17131359-17.70975021 20.05114682 20.05114682 0 0 1 15.08550096-6.97704435z" p-id="7786"></path></svg>