<?xml version="1.0" standalone="no"?><!DOCTYPE svg PUBLIC "-//W3C//DTD SVG 1.1//EN" "http://www.w3.org/Graphics/SVG/1.1/DTD/svg11.dtd"><svg t="1718198626924" class="icon" viewBox="0 0 1024 1024" version="1.1" xmlns="http://www.w3.org/2000/svg" p-id="28711" width="32" height="32" xmlns:xlink="http://www.w3.org/1999/xlink"><path d="M224 128H96.3c-17.7 0-32.1-14.4-32.1-32.1 0-17.7 14.4-32.1 32.1-32.1H224c17.7 0 32.1 14.4 32.1 32.1-0.1 17.7-14.4 32.1-32.1 32.1zM864.1 767.8h-512c-17.7 0-32.1-14.4-32.1-32.1 0-17.7 14.4-32.1 32.1-32.1h512c17.7 0 32.1 14.4 32.1 32.1 0 17.7-14.4 32.1-32.1 32.1z" fill="#333333" p-id="28712"></path><path d="M346.3 767.8c-15.2 0-28.3-10.9-31-25.9L198.8 101c-3.5-19.3 11.3-37.1 31-37.1 15.2 0 28.3 10.9 31 25.9l116.6 641c3.4 19.2-11.4 37-31.1 37z" fill="#333333" p-id="28713"></path><path d="M448.1 895.6m-63.9 0a63.9 63.9 0 1 0 127.8 0 63.9 63.9 0 1 0-127.8 0Z" fill="#333333" p-id="28714"></path><path d="M768.1 895.6m-63.9 0a63.9 63.9 0 1 0 127.8 0 63.9 63.9 0 1 0-127.8 0Z" fill="#333333" p-id="28715"></path><path d="M608.1 231.9h-192l96-96.5 53.5-53.8c23.5-23.6 61.6-23.6 85.1 0l53.5 53.8 96 96.5H608.1zM889.3 256.8H256.8L320.1 640h525.3c29.3 0 54.3-21.2 59.2-50.1l44-263.2c6-36.6-22.2-69.9-59.3-69.9z m-118 228.8h-45.9c-3.5 11.6-8.7 22.5-15.1 32.5l30.5 30.5-45.3 45.3-32.5-32.6c-10.4 5.6-21.7 9.7-33.6 12.2v43.2h-64v-46.2c-11.5-3.5-22.3-8.7-32.2-15.1l-30.8 30.8-45.3-45.2 32.9-32.9c-5.5-10.3-9.6-21.5-12-33.3h-43.8v-64h46.6c3.5-11.4 8.6-22.2 14.9-32l-31-31 45.3-45.3 32.9 32.9c10.3-5.5 21.4-9.6 33.2-12.2v-43.7h64V326c11.5 3.5 22.4 8.5 32.3 14.9l30.7-30.7 45.3 45.3-32.6 32.5c5.6 10.4 9.8 21.7 12.3 33.6h43.2v64z" fill="#333333" p-id="28716"></path><path d="M602.8 448.4m-63.4 0a63.4 63.4 0 1 0 126.8 0 63.4 63.4 0 1 0-126.8 0Z" fill="#333333" p-id="28717"></path></svg>