<?xml version="1.0" standalone="no"?><!DOCTYPE svg PUBLIC "-//W3C//DTD SVG 1.1//EN" "http://www.w3.org/Graphics/SVG/1.1/DTD/svg11.dtd"><svg t="1729777521998" class="icon" viewBox="0 0 1025 1024" version="1.1" xmlns="http://www.w3.org/2000/svg" p-id="7498" width="32.03125" height="32" xmlns:xlink="http://www.w3.org/1999/xlink"><path d="M114.688 189.44c-11.264 12.288-17.408 26.624-17.408 40.96v28.672h206.848v-90.112H151.552c-13.312 1.024-25.6 8.192-36.864 20.48z m886.784 175.104c7.168-3.072 13.312-8.192 17.408-14.336 4.096-7.168 6.144-14.336 6.144-21.504 0-8.192-2.048-15.36-6.144-23.552-4.096-8.192-10.24-14.336-18.432-18.432-6.144-3.072-10.24-8.192-12.288-14.336-2.048-6.144-3.072-12.288-3.072-19.456 1.024-6.144 2.048-12.288 5.12-18.432 3.072-6.144 7.168-10.24 11.264-14.336 5.12-4.096 9.216-8.192 10.24-14.336 2.048-5.12 2.048-11.264 1.024-16.384s-3.072-9.216-7.168-13.312c-4.096-4.096-8.192-5.12-13.312-5.12H371.712v88.064H901.12c10.24 0 18.432 3.072 25.6 9.216 6.144 6.144 10.24 12.288 13.312 20.48 3.072 9.216 4.096 20.48 3.072 31.744-1.024 11.264-8.192 20.48-20.48 27.648-6.144 4.096-10.24 9.216-13.312 15.36-3.072 7.168-5.12 13.312-5.12 21.504 0 7.168 2.048 14.336 5.12 21.504 3.072 7.168 9.216 12.288 16.384 16.384 7.168 4.096 11.264 8.192 14.336 14.336 2.048 5.12 4.096 11.264 3.072 17.408-1.024 6.144-2.048 11.264-5.12 16.384s-6.144 9.216-11.264 12.288c-6.144 4.096-11.264 10.24-14.336 17.408-3.072 7.168-4.096 14.336-4.096 21.504 0 7.168 2.048 14.336 5.12 19.456 3.072 6.144 8.192 10.24 13.312 13.312 4.096 2.048 8.192 6.144 10.24 11.264 2.048 5.12 3.072 12.288 3.072 18.432 0 7.168-1.024 13.312-4.096 19.456-3.072 6.144-7.168 10.24-13.312 12.288-4.096 2.048-7.168 6.144-10.24 11.264-2.048 5.12-3.072 11.264-4.096 17.408 0 7.168 1.024 13.312 3.072 19.456 2.048 6.144 7.168 11.264 12.288 14.336 9.216 5.12 15.36 11.264 18.432 19.456 4.096 7.168 4.096 16.384 0 26.624-2.048 3.072-3.072 5.12-6.144 8.192-2.048 2.048-4.096 4.096-5.12 6.144-1.024 2.048-2.048 3.072-1.024 4.096 0 1.024 3.072 1.024 7.168 1.024h59.392c7.168 0 12.288-2.048 15.36-7.168 3.072-4.096 4.096-9.216 4.096-15.36s-1.024-12.288-4.096-18.432c-3.072-6.144-5.12-10.24-8.192-12.288-14.336-11.264-21.504-22.528-21.504-33.792 0-11.264 7.168-21.504 21.504-29.696 4.096-3.072 7.168-8.192 10.24-14.336 2.048-6.144 3.072-13.312 3.072-21.504 0-7.168-2.048-14.336-5.12-21.504-3.072-6.144-8.192-11.264-14.336-13.312-6.144-2.048-10.24-6.144-12.288-12.288-2.048-5.12-4.096-11.264-4.096-17.408 0-6.144 1.024-11.264 4.096-16.384 3.072-5.12 7.168-8.192 12.288-9.216 7.168-1.024 11.264-4.096 15.36-10.24 3.072-6.144 5.12-13.312 5.12-20.48s-1.024-15.36-4.096-22.528c-3.072-7.168-9.216-13.312-16.384-17.408-7.168-4.096-12.288-10.24-16.384-16.384-3.072-6.144-4.096-13.312-4.096-19.456 1.024-6.144 2.048-12.288 6.144-18.432 4.096-5.12 10.24-9.216 18.432-12.288z" fill="#F2B6BF" p-id="7499"></path><path d="M16.384 323.584c-6.144 9.216-10.24 23.552-10.24 43.008v118.784c0 8.192 2.048 14.336 5.12 17.408 4.096 3.072 9.216 6.144 17.408 7.168 10.24 1.024 20.48 7.168 29.696 16.384 9.216 9.216 13.312 23.552 13.312 39.936 0 11.264-2.048 20.48-5.12 28.672-4.096 8.192-8.192 14.336-13.312 19.456s-10.24 8.192-15.36 11.264c-5.12 2.048-9.216 3.072-12.288 3.072-8.192 1.024-13.312 4.096-16.384 8.192-2.048 4.096-4.096 10.24-4.096 18.432v160.768c0 20.48 4.096 34.816 12.288 43.008 8.192 7.168 22.528 11.264 41.984 10.24H92.16c15.36 0 31.744 1.024 48.128 1.024h60.416V310.272H60.416c-23.552 0-37.888 4.096-44.032 13.312z m838.656 294.912c6.144-3.072 10.24-7.168 13.312-13.312 3.072-6.144 4.096-12.288 4.096-19.456s-2.048-13.312-6.144-19.456c-4.096-6.144-9.216-10.24-16.384-13.312-8.192-3.072-14.336-8.192-18.432-14.336-4.096-7.168-6.144-13.312-5.12-20.48 1.024-7.168 3.072-13.312 8.192-19.456 5.12-6.144 11.264-10.24 20.48-12.288 7.168-2.048 13.312-6.144 16.384-11.264 3.072-6.144 5.12-11.264 4.096-18.432 0-6.144-3.072-12.288-6.144-18.432-4.096-6.144-9.216-10.24-16.384-13.312-9.216-3.072-15.36-7.168-18.432-13.312-4.096-6.144-5.12-12.288-4.096-18.432 1.024-6.144 3.072-12.288 7.168-17.408 4.096-5.12 9.216-9.216 16.384-11.264 6.144-2.048 11.264-6.144 14.336-12.288 3.072-6.144 4.096-12.288 4.096-17.408-1.024-6.144-2.048-11.264-5.12-16.384s-8.192-7.168-14.336-7.168H266.24V870.4h577.536c6.144 0 10.24-2.048 14.336-7.168 3.072-5.12 5.12-10.24 6.144-16.384 1.024-6.144 0-12.288-3.072-18.432-3.072-6.144-7.168-11.264-12.288-14.336-9.216-4.096-15.36-10.24-19.456-17.408-4.096-7.168-6.144-13.312-5.12-20.48 0-6.144 3.072-13.312 7.168-18.432 5.12-6.144 11.264-10.24 20.48-12.288 6.144-2.048 11.264-6.144 14.336-12.288 3.072-5.12 4.096-12.288 4.096-18.432 0-7.168-3.072-14.336-7.168-20.48-4.096-6.144-9.216-11.264-16.384-14.336-14.336-7.168-21.504-17.408-20.48-30.72 1.024-11.264 10.24-21.504 28.672-30.72zM638.976 463.872c-1.024 2.048-5.12 8.192-12.288 17.408-7.168 9.216-14.336 18.432-21.504 28.672-8.192 10.24-14.336 19.456-20.48 28.672-6.144 9.216-9.216 14.336-10.24 15.36-2.048 4.096-1.024 6.144 3.072 7.168 4.096 1.024 8.192 1.024 11.264 1.024h37.888c3.072 0 7.168 1.024 9.216 4.096 3.072 3.072 4.096 6.144 4.096 9.216v26.624c0 5.12-4.096 8.192-11.264 8.192H563.2c-3.072 0-5.12 1.024-8.192 2.048-3.072 1.024-4.096 4.096-4.096 6.144v9.216c0 3.072 1.024 6.144 1.024 8.192 0 4.096 4.096 6.144 11.264 4.096h64.512c7.168 0 11.264 3.072 11.264 10.24V675.84c0 7.168-5.12 11.264-15.36 11.264h-14.336c-6.144 0-11.264 0-18.432 1.024-6.144 1.024-12.288 1.024-17.408 1.024h-10.24c-6.144 0-10.24 4.096-10.24 11.264v45.056c0 4.096-3.072 6.144-9.216 6.144h-35.84c-9.216 0-14.336-4.096-14.336-12.288 0-3.072 0-9.216 1.024-19.456 1.024-9.216 0-16.384-1.024-20.48 0-4.096 0-6.144-1.024-7.168-1.024-1.024-3.072-2.048-6.144-2.048H419.84c-9.216 0-14.336-5.12-14.336-14.336 0-2.048 0-5.12-1.024-8.192-1.024-3.072-1.024-7.168 0-10.24 1.024-4.096 2.048-7.168 3.072-10.24 1.024-3.072 4.096-4.096 9.216-3.072h73.728c1.024 0 2.048-2.048 2.048-6.144v-21.504c0-4.096-4.096-5.12-13.312-5.12h-72.704c-2.048 0-3.072-2.048-3.072-6.144v-13.312c0-6.144 0-10.24-1.024-13.312-1.024-4.096 0-8.192 3.072-11.264 4.096-3.072 8.192-4.096 14.336-4.096 6.144 1.024 12.288 1.024 19.456 1.024s12.288-1.024 16.384-1.024h13.312c4.096 0 6.144-2.048 4.096-4.096-1.024-2.048-6.144-7.168-13.312-16.384-7.168-10.24-15.36-19.456-23.552-30.72-9.216-12.288-20.48-26.624-32.768-40.96-5.12-8.192-4.096-15.36 3.072-20.48 4.096-2.048 7.168-5.12 11.264-8.192 4.096-3.072 9.216-6.144 14.336-9.216 7.168-4.096 14.336 0 20.48 12.288 2.048 3.072 6.144 8.192 12.288 16.384s12.288 16.384 19.456 25.6c6.144 9.216 13.312 17.408 18.432 23.552 6.144 7.168 9.216 11.264 10.24 13.312 1.024 3.072 4.096 5.12 8.192 5.12 4.096 1.024 7.168 0 8.192-3.072 1.024-2.048 4.096-6.144 9.216-14.336 5.12-8.192 11.264-16.384 18.432-26.624 6.144-10.24 13.312-18.432 18.432-27.648 6.144-8.192 9.216-14.336 11.264-16.384 4.096-5.12 7.168-8.192 9.216-10.24 3.072-1.024 7.168-1.024 13.312 1.024 4.096 1.024 8.192 4.096 12.288 6.144 4.096 3.072 7.168 5.12 9.216 7.168 9.216 5.12 11.264 12.288 8.192 18.432z" fill="#F090A1" p-id="7500"></path></svg>