<?xml version="1.0" standalone="no"?><!DOCTYPE svg PUBLIC "-//W3C//DTD SVG 1.1//EN" "http://www.w3.org/Graphics/SVG/1.1/DTD/svg11.dtd"><svg t="1718197983688" class="icon" viewBox="0 0 1024 1024" version="1.1" xmlns="http://www.w3.org/2000/svg" p-id="25776" xmlns:xlink="http://www.w3.org/1999/xlink" width="32" height="32"><path d="M769.554942 968.446162H277.203755a20.921038 20.921038 0 0 1-20.921038-19.648812l-22.334622-380.112645a20.921038 20.921038 0 0 1 20.921038-22.193264h537.161789a20.921038 20.921038 0 0 1 20.921038 22.193264L790.47598 948.79735a20.921038 20.921038 0 0 1-20.921038 19.648812z m-472.561016-42.407509h452.34677l19.931529-338.270569H277.062396z" fill="#80C269" p-id="25777"></path><path d="M772.806184 664.384318H418.420762a10.460519 10.460519 0 0 1 0-20.921038h354.385422a10.460519 10.460519 0 1 1 0 20.921038zM772.806184 735.063501H262.643843a10.460519 10.460519 0 0 1 0-20.921038h510.162341a10.460519 10.460519 0 1 1 0 20.921038zM772.806184 874.301491H262.643843a10.460519 10.460519 0 0 1 0-20.921038h510.162341a10.460519 10.460519 0 1 1 0 20.921038zM772.806184 804.611817H262.643843a10.460519 10.460519 0 1 1 0-20.921038h510.162341a10.460519 10.460519 0 0 1 0 20.921038z" fill="#80C269" p-id="25778"></path><path d="M418.420762 729.550525a10.460519 10.460519 0 0 1-10.460519-10.460519V567.412479a10.460519 10.460519 0 0 1 20.921038 0v151.677527a10.460519 10.460519 0 0 1-10.460519 10.460519z" fill="#80C269" p-id="25779"></path><path d="M299.962452 577.166207a20.921038 20.921038 0 0 1-19.507455-13.429045l-102.90889-267.591386a20.921038 20.921038 0 0 1 9.329652-25.585864l73.930425-43.397019a20.921038 20.921038 0 0 1 30.250691 10.884595l69.548316 188.996134-10.884595-325.12424A20.921038 20.921038 0 0 1 370.641634 80.43291h108.421867a20.921038 20.921038 0 0 1 20.921038 22.617338l-38.449475 455.032579a20.921038 20.921038 0 0 1-42.40751-3.533959L455.456654 122.274986h-63.611265l14.135837 433.263391a20.921038 20.921038 0 0 1-40.569851 7.916068l-105.453341-287.522915-36.894533 21.769188 97.113197 251.193815a20.921038 20.921038 0 0 1-19.507454 28.271674zM727.712866 566.705687A10.460519 10.460519 0 0 1 718.383214 551.297626l105.736057-207.372723-50.464936-37.459967-127.222529 249.638874a10.460519 10.460519 0 1 1-18.659305-9.47101l132.594147-260.664827a10.460519 10.460519 0 0 1 6.92656-5.512976 10.601877 10.601877 0 0 1 8.62286 1.837659l67.569299 50.18222a10.460519 10.460519 0 0 1 3.109884 13.146328l-109.552733 215.430149a10.460519 10.460519 0 0 1-9.329652 5.654334z" fill="#80C269" p-id="25780"></path><path d="M575.187189 585.223633h-2.261733A20.921038 20.921038 0 0 1 554.40751 562.040861l40.145775-381.667587a20.921038 20.921038 0 0 1 32.653783-15.125345l101.353948 68.982883a20.921038 20.921038 0 0 1 8.62286 22.193263L662.829376 565.433462a20.921038 20.921038 0 1 1-40.711209-9.753727l70.679183-295.580342-60.360023-40.993926-36.470458 347.317504a20.921038 20.921038 0 0 1-20.77968 18.800662z" fill="#80C269" p-id="25781"></path><path d="M581.265599 566.705687a10.460519 10.460519 0 0 1-10.319161-9.046935L526.135837 243.277747l-51.737162 19.93153a10.460519 10.460519 0 1 1-7.491994-19.507455l64.03534-24.596355a10.460519 10.460519 0 0 1 14.135837 8.340143l46.789619 327.527333a10.460519 10.460519 0 0 1-8.905577 11.874103zM522.319161 566.705687a10.460519 10.460519 0 0 1-10.036444-7.491993l-59.794589-200.304804a10.460519 10.460519 0 1 1 20.072888-5.512976l59.65323 200.304804a10.460519 10.460519 0 0 1-7.067918 13.004969 10.319161 10.319161 0 0 1-2.827167 0z" fill="#80C269" p-id="25782"></path></svg>