<?xml version="1.0" standalone="no"?><!DOCTYPE svg PUBLIC "-//W3C//DTD SVG 1.1//EN" "http://www.w3.org/Graphics/SVG/1.1/DTD/svg11.dtd"><svg t="1717402572360" class="icon" viewBox="0 0 1024 1024" version="1.1" xmlns="http://www.w3.org/2000/svg" p-id="16316" width="32" height="32" xmlns:xlink="http://www.w3.org/1999/xlink"><path d="M414.31238675 523.77462657c4.81801007 53.83388858 14.55235723 167.64708609 14.5523572 188.3940279 0.24581676 2.06486152 0.29498001 4.12972307 0.24581678 6.1945846-0.63912376 25.26997139-21.33690182 45.3286257-46.45938298 45.3286257h-1.17992101c-0.34414375 0-0.68828702-0.04916327-1.03243077-0.04916325-27.23650593-1.81904478-47.83595748-25.41746165-46.01691271-52.65396805 0-16.174748 10.32430717-132.49527781 15.19148098-188.24653767 0.98326751-10.96343092-3.88390631-21.63188233-12.78247571-28.12144645C302.26907025 469.59659472 282.21041595 428.59434558 284.37360398 385.23225441 284.37360398 316.20688535 327.8831854 260.25897198 381.47125674 260.25897198s97.146816 55.94791337 97.14681599 126.15320344c2.35984154 43.21460092-17.40383227 84.1676868-51.67070005 109.33933121-8.84940615 6.44040134-13.61825295 17.10885227-12.63498593 28.02311993zM685.05505669 260.25897198c8.70191638 0 15.73227774 7.03036185 15.73227824 15.73227774v133.72436206c0 26.0565854-10.57012441 49.65500227-27.62981344 66.76385454-6.2929111 6.2929111-13.51992645 11.75004493-21.38606508 16.07642151-4.37553982 2.40900528-6.93203485 7.22701537-6.34207435 12.19251518l20.79610458 188.29570141c1.72071778 38.4457541-25.56495141 70.69692359-59.78265593 70.6969236S544.93945702 731.48985852 546.66017479 693.04410442l22.02518885-187.8040674c0.5899605-4.91633708-1.91737128-9.63602016-6.29291111-11.94669894-29.98965495-15.92893125-50.39245253-47.34432398-50.39245253-83.57772629V275.99124972c0-8.70191638 7.03036185-15.73227774 15.73227774-15.73227775s15.73227774 7.03036185 15.73227824 15.73227775v129.79129301c0 6.53872786 5.26048034 11.79920818 11.79920819 11.79920818s11.79920818-5.26048034 11.79920866-11.79920818V275.99124972c0-8.70191638 7.03036185-15.73227774 15.73227777-15.73227775s15.73227774 7.03036185 15.73227774 15.73227775v133.72436206c0 4.32637657 3.53976255 7.86613913 7.86613912 7.86613913s7.86613913-3.53976255 7.86613863-7.86613913V275.99124972c0-8.70191638 7.03036185-15.73227774 15.73227823-15.73227775s15.73227774 7.03036185 15.73227775 15.73227775v129.79129301c0 6.53872786 5.26048034 11.79920818 11.79920869 11.79920818s11.79920818-5.26048034 11.79920818-11.79920818V275.99124972c0-8.70191638 7.03036185-15.73227774 15.73227775-15.73227775z" p-id="16317" fill="#ffffff"></path></svg>