<?xml version="1.0" standalone="no"?><!DOCTYPE svg PUBLIC "-//W3C//DTD SVG 1.1//EN" "http://www.w3.org/Graphics/SVG/1.1/DTD/svg11.dtd"><svg t="1717519467423" class="icon" viewBox="0 0 1024 1024" version="1.1" xmlns="http://www.w3.org/2000/svg" p-id="23870" width="32" height="32" xmlns:xlink="http://www.w3.org/1999/xlink"><path d="M744.727273 141.032727h-1.861818c-95.650909 0-175.941818-10.938182-226.21091-68.189091-51.2 57.250909-131.723636 68.189091-227.84 68.189091-153.134545 0-157.323636 153.134545-157.323636 153.134546v343.970909c0 99.374545 237.381818 279.272727 367.010909 310.923636a69.818182 69.818182 0 0 0 33.512727 0c130.56-30.72 367.709091-209.454545 367.709091-311.156363V294.167273c0-111.476364-54.458182-153.134545-154.996363-153.134546z m100.072727 497.105455c0 57.018182-188.043636 215.970909-308.130909 253.207273a73.774545 73.774545 0 0 1-42.589091 0C373.76 854.109091 186.181818 694.923636 186.181818 638.138182V297.192727a98.443636 98.443636 0 0 1 102.4-100.072727c80.989091 0 162.909091-6.981818 226.909091-50.269091C579.490909 188.974545 661.643636 195.956364 744.727273 195.956364c77.498182 0 101.003636 23.272727 101.003636 98.210909v343.970909zM510.370909 222.254545a162.909091 162.909091 0 0 0-165.469091 161.047273 168.96 168.96 0 0 0 164.770909 167.563637 168.727273 168.727273 0 0 0 165.236364-167.563637 162.909091 162.909091 0 0 0-164.538182-161.047273z m-2.56 279.272728a116.363636 116.363636 0 1 1 116.363636-116.363637 116.363636 116.363636 0 0 1-116.363636 115.665455z m-172.916364 226.443636c0-104.261818 98.443636-173.614545 186.181819-173.149091a184.32 184.32 0 0 1 151.738181 69.818182l32.349091-33.28a221.556364 221.556364 0 0 0-184.087272-82.152727c-129.163636 0-237.847273 93.090909-237.847273 219.461818z m250.88-58.647273L662.109091 744.727273l139.636364-145.92-27.694546-27.927273-112.407273 112.407273-43.52-43.52z" fill="#040000" p-id="23871"></path></svg>