<?xml version="1.0" standalone="no"?><!DOCTYPE svg PUBLIC "-//W3C//DTD SVG 1.1//EN" "http://www.w3.org/Graphics/SVG/1.1/DTD/svg11.dtd"><svg t="1718195412649" class="icon" viewBox="0 0 1024 1024" version="1.1" xmlns="http://www.w3.org/2000/svg" p-id="10353" xmlns:xlink="http://www.w3.org/1999/xlink" width="32" height="32"><path d="M829.19619 560.761905c29.988571 0 57.709714 16.091429 72.582096 42.130285l49.761524 87.064381a83.602286 83.602286 0 0 1 0 82.944l-49.737143 87.064381A83.602286 83.602286 0 0 1 829.19619 902.095238h-98.011428c-29.988571 0-57.709714-16.091429-72.582095-42.130286l-49.761524-87.064381a83.602286 83.602286 0 0 1 0-82.944l49.737143-87.064381A83.602286 83.602286 0 0 1 731.184762 560.761905h98.011428zM558.811429 155.574857a73.142857 73.142857 0 0 1 9.386666 9.386667L707.047619 331.580952l153.161143-113.103238a73.142857 73.142857 0 0 1 114.419809 76.556191l-61.683809 246.808381a132.388571 132.388571 0 0 0-68.193524-28.940191l58.904381-235.593143-208.65219 154.087619L512 211.772952l-183.003429 219.623619-208.65219-154.087619L252.14781 804.571429H570.758095l41.813334 73.142857H195.047619L49.371429 295.058286A73.142857 73.142857 0 0 1 163.791238 218.453333L316.952381 331.580952l138.849524-166.619428a73.142857 73.142857 0 0 1 103.033905-9.386667zM829.19619 633.904762h-98.011428a10.459429 10.459429 0 0 0-9.069714 5.266286l-49.761524 87.064381a10.459429 10.459429 0 0 0 0 10.386285l49.737143 87.064381a10.459429 10.459429 0 0 0 9.094095 5.266286h98.011428a10.459429 10.459429 0 0 0 9.069715-5.266286l49.761524-87.064381a10.459429 10.459429 0 0 0 0-10.386285l-49.737143-87.064381A10.459429 10.459429 0 0 0 829.19619 633.904762zM780.190476 682.666667a48.761905 48.761905 0 1 1 0 97.523809 48.761905 48.761905 0 0 1 0-97.523809z m-215.82019-13.019429a132.33981 132.33981 0 0 0-14.311619 78.019048H341.333333v-78.019048h223.036953z" p-id="10354" fill="#13227a"></path></svg>