<?xml version="1.0" standalone="no"?><!DOCTYPE svg PUBLIC "-//W3C//DTD SVG 1.1//EN" "http://www.w3.org/Graphics/SVG/1.1/DTD/svg11.dtd"><svg t="1717604652258" class="icon" viewBox="0 0 1024 1024" version="1.1" xmlns="http://www.w3.org/2000/svg" p-id="19122" width="48" height="48" xmlns:xlink="http://www.w3.org/1999/xlink"><path d="M736 416.64a109.6 109.6 0 0 0 109.472-109.696 109.568 109.568 0 0 0-109.792-109.376 109.568 109.568 0 0 0-109.44 109.696 109.44 109.44 0 0 0 32.192 77.376 109.76 109.76 0 0 0 77.568 32zM959.456 0H64a64 64 0 0 0-64 64v0.608l0.544 894.688A64 64 0 0 0 64 1024h896a64 64 0 0 0 64-64v-0.608L1023.52 64.64A64 64 0 0 0 960 0h-0.64z m-234.944 598.752a39.2 39.2 0 0 0-29.216-14.176 45.28 45.28 0 0 0-29.248 12.8L623.36 633.6a42.816 42.816 0 0 1-26.24 10.752 37.792 37.792 0 0 1-25.12-9.408c-3.392-3.2-6.656-6.208-9.856-9.408l-122.88-132.736a50.336 50.336 0 0 0-38.4-17.184 52 52 0 0 0-38.4 17.824L73.504 841.6 72.992 99.744a30.048 30.048 0 0 1 29.92-26.72h817.312a29.024 29.024 0 0 1 29.472 27.424l1.12 742.016-226.496-243.52z" fill="#E5E5E5" p-id="19123"></path></svg>