<?xml version="1.0" standalone="no"?><!DOCTYPE svg PUBLIC "-//W3C//DTD SVG 1.1//EN" "http://www.w3.org/Graphics/SVG/1.1/DTD/svg11.dtd"><svg t="1716218922044" class="icon" viewBox="0 0 1024 1024" version="1.1" xmlns="http://www.w3.org/2000/svg" p-id="4272" xmlns:xlink="http://www.w3.org/1999/xlink" width="32" height="32"><path d="M919.102439 814.204878c0 68.682927-194.809756 124.878049-434.57561 124.878049-239.765854 0-434.57561-56.195122-434.575609-124.878049s194.809756-124.878049 434.575609-124.878049c239.765854 0 434.57561 56.195122 434.57561 124.878049" fill="#D9D9D9" p-id="4273"></path><path d="M789.229268 389.619512c42.458537-16.234146 99.902439-19.980488 146.107317 28.721951 37.463415 39.960976 41.209756 111.141463 8.741464 178.57561-32.468293 67.434146-104.897561 134.868293-216.039025 134.868293-7.492683 0-14.985366 0-22.478048-1.248781-31.219512 37.463415-66.185366 72.429268-103.648781 103.648781 0 0-8.741463 24.97561-146.107317 24.97561s-146.107317-24.97561-146.107317-24.97561c-99.902439-83.668293-192.312195-192.312195-192.312195-315.941464v-114.887804c0-181.073171 639.37561-186.068293 671.843902-13.736586z m94.907317 182.321951c22.478049-47.453659 21.229268-87.414634-1.24878-111.141463-34.965854-37.463415-72.429268-21.229268-92.409756-7.492683v77.42439c0 41.209756-9.990244 79.921951-27.473171 117.385366 79.921951-8.741463 109.892683-53.697561 121.131707-76.17561z" fill="#F4F4F4" p-id="4274"></path><path d="M379.629268 738.029268c-94.907317-56.195122-123.629268-169.834146-154.84878-268.487805-17.482927-58.692683-108.643902-33.717073-91.160976 24.97561 37.463415 123.629268 79.921951 256 198.556098 325.931707 52.44878 29.970732 99.902439-52.44878 47.453658-82.419512" fill="#F2F2F2" p-id="4275"></path><path d="M751.765854 378.380488c0 54.946341-133.619512 99.902439-298.458537 99.902439s-298.458537-44.956098-298.458537-99.902439 133.619512-99.902439 298.458537-99.902439 298.458537 44.956098 298.458537 99.902439" fill="#D9D9D9" p-id="4276"></path><path d="M449.560976 449.560976c-137.365854 0-249.756098-33.717073-249.756098-74.92683s112.390244-74.926829 249.756098-74.926829 249.756098 33.717073 249.756097 74.926829-112.390244 74.926829-249.756097 74.92683" fill="#BBBBBB" p-id="4277"></path><path d="M350.907317 807.960976c-4.995122-2.497561-9.990244-6.243902-16.234146-9.990244-1.24878-1.24878-3.746341-2.497561-4.995122-3.746342-1.24878-1.24878-3.746341-2.497561-4.995122-3.746341-3.746341-2.497561-6.243902-4.995122-9.990244-8.741464-3.746341-2.497561-7.492683-6.243902-11.239024-8.741463-2.497561-1.24878-3.746341-2.497561-6.243903-4.995122-1.24878-1.24878-3.746341-3.746341-6.243902-4.995122l-11.239025-11.239024c-3.746341-3.746341-8.741463-7.492683-12.487805-12.487805-3.746341-4.995122-7.492683-8.741463-11.239024-13.736586-3.746341-4.995122-8.741463-8.741463-11.239024-13.736585l-11.239025-14.985366-4.995122-7.492683c-1.24878-2.497561-3.746341-4.995122-4.995122-7.492683-6.243902-9.990244-13.736585-21.229268-18.731707-32.468292-2.497561-4.995122-6.243902-11.239024-8.741463-16.234147-2.497561-4.995122-4.995122-11.239024-7.492683-16.234146-2.497561-4.995122-4.995122-11.239024-6.243903-16.234146-2.497561-4.995122-3.746341-11.239024-6.243902-16.234147-3.746341-9.990244-6.243902-19.980488-8.741464-29.970731-1.24878-4.995122-2.497561-8.741463-3.746341-13.736586-1.24878-3.746341-1.24878-8.741463-2.497561-12.487805-1.24878-7.492683-2.497561-14.985366-2.497561-19.980487 0-2.497561 0-4.995122-1.248781-7.492683v-6.243903-31.219512l62.439025 28.721951v42.458537c0 3.746341 0 7.492683 1.24878 12.487805 0 8.741463 2.497561 17.482927 3.746342 27.47317 1.24878 4.995122 1.24878 9.990244 2.497561 14.985366l3.746341 14.985366c1.24878 4.995122 2.497561 9.990244 3.746342 16.234146 1.24878 4.995122 3.746341 9.990244 4.995122 16.234147 3.746341 11.239024 7.492683 21.229268 12.487805 32.468292l3.746341 7.492683 3.746341 7.492683 7.492683 14.985366c2.497561 4.995122 6.243902 9.990244 8.741464 14.985366 2.497561 4.995122 6.243902 9.990244 8.741463 13.736585 2.497561 4.995122 6.243902 8.741463 9.990244 13.736586 3.746341 3.746341 6.243902 8.741463 9.990244 12.487805 1.24878 2.497561 2.497561 3.746341 4.995122 6.243902 1.24878 2.497561 3.746341 3.746341 4.995122 4.995122 3.746341 3.746341 6.243902 7.492683 8.741463 9.990244 2.497561 3.746341 6.243902 6.243902 8.741464 9.990244 1.24878 1.24878 2.497561 2.497561 3.746341 4.995122l3.746342 3.746341c4.995122 4.995122 9.990244 8.741463 13.736585 12.487805 7.492683 7.492683 12.487805 11.239024 12.487805 11.239025s-6.243902-3.746341-14.985366-9.990244" fill="#D9D9D9" p-id="4278"></path><path d="M561.95122 129.873171c-11.239024-14.985366-21.229268-28.721951-21.229269-42.458537 0-21.229268 9.990244-31.219512 13.736586-36.214634 4.995122-2.497561 7.492683-7.492683 7.492683-12.487805 0-7.492683-7.492683-13.736585-16.234147-13.736585-2.497561 0-4.995122 0-7.492683 1.24878 0 0-1.24878 0-1.24878 1.248781-1.24878 0-1.24878 1.24878-2.497561 2.497561-8.741463 6.243902-26.22439 24.97561-26.22439 58.692683 0 22.478049 13.736585 41.209756 26.22439 57.443902 9.990244 13.736585 19.980488 26.22439 19.980488 38.712195 0 22.478049-18.731707 41.209756-18.731708 42.458537-6.243902 6.243902-4.995122 14.985366 1.248781 19.980488 2.497561 2.497561 6.243902 3.746341 9.990244 3.746341 3.746341 0 8.741463-1.24878 11.239024-4.995122 1.24878-1.24878 27.473171-27.473171 27.473171-61.190244 1.24878-21.229268-11.239024-38.712195-23.726829-54.946341m-117.385366 0c-11.239024-14.985366-21.229268-28.721951-21.229269-42.458537 0-21.229268 9.990244-31.219512 13.736586-36.214634 4.995122-2.497561 7.492683-7.492683 7.492683-12.487805 0-7.492683-7.492683-13.736585-16.234147-13.736585-2.497561 0-4.995122 0-7.492683 1.24878 0 0-1.24878 0-1.24878 1.248781-1.24878 0-1.24878 1.24878-2.497561 2.497561-8.741463 6.243902-26.22439 24.97561-26.22439 58.692683 0 22.478049 13.736585 41.209756 26.22439 57.443902 9.990244 13.736585 19.980488 26.22439 19.980488 38.712195 0 22.478049-18.731707 41.209756-18.731708 42.458537-6.243902 6.243902-4.995122 14.985366 1.248781 19.980488 2.497561 2.497561 6.243902 3.746341 9.990244 3.746341 3.746341 0 8.741463-1.24878 11.239024-4.995122 1.24878-1.24878 27.473171-27.473171 27.473171-61.190244 1.24878-21.229268-11.239024-38.712195-23.726829-54.946341m-117.385366 0C315.941463 114.887805 305.95122 101.15122 305.95122 87.414634c0-21.229268 9.990244-31.219512 13.736585-36.214634 4.995122-2.497561 7.492683-7.492683 7.492683-12.487805C328.429268 31.219512 320.936585 24.97561 312.195122 24.97561c-2.497561 0-4.995122 0-7.492683 1.24878 0 0-1.24878 0-1.24878 1.248781-1.24878 0-1.24878 1.24878-2.497561 2.497561C292.214634 36.214634 274.731707 53.697561 274.731707 87.414634c0 22.478049 13.736585 41.209756 26.224391 57.443903 9.990244 13.736585 19.980488 26.22439 19.980487 38.712195 0 22.478049-18.731707 41.209756-18.731707 42.458536-6.243902 6.243902-4.995122 14.985366 1.248781 19.980488 2.497561 2.497561 6.243902 3.746341 9.990243 3.746342 3.746341 0 8.741463-1.24878 11.239025-4.995122 1.24878-1.24878 27.473171-27.473171 27.473171-61.190244 0-19.980488-12.487805-37.463415-24.97561-53.697561" fill="#F4F4F4" p-id="4279"></path></svg>