<?xml version="1.0" standalone="no"?><!DOCTYPE svg PUBLIC "-//W3C//DTD SVG 1.1//EN" "http://www.w3.org/Graphics/SVG/1.1/DTD/svg11.dtd"><svg t="1716391671498" class="icon" viewBox="0 0 1024 1024" version="1.1" xmlns="http://www.w3.org/2000/svg" p-id="7512" width="32" height="32" xmlns:xlink="http://www.w3.org/1999/xlink"><path d="M709.888 705.856c-12.928-90.88-83.136-165.888-174.784-186.816-19.968-4.608-19.712-4.608-20.16-24.896-0.192-9.024 1.088-16.192 8.512-23.104 28.288-26.56 55.68-54.08 83.712-80.96a19.648 19.648 0 0 0 6.528-15.744c-0.192-98.944-0.128-197.888-0.064-296.832v-12.096H352.704c-0.256 2.24-0.512 3.2-0.512 4.16 0 102.592-0.128 205.184 0.128 307.84 0 3.968 2.816 8.768 5.76 11.776 26.112 25.92 52.16 51.968 79.104 76.928 9.984 9.28 14.656 18.56 13.696 32.128-1.152 16.896-0.256 16.96-17.344 20.352-115.072 23.04-195.712 136.256-177.536 249.024 20.224 125.568 137.152 208.64 265.088 188.224 121.216-19.328 205.76-131.328 188.8-249.984z m-68.608 2.752c-24.96 20.288-49.92 40.384-75.2 60.288-5.76 4.544-7.552 8.64-5.44 16.128 8.512 30.08 16.256 60.416 23.872 90.752 0.96 3.712 1.92 10.304-0.832 11.968-2.752 1.6-7.872-1.28-11.008-3.2a4781.76 4781.76 0 0 1-81.216-50.496c-6.464-4.16-11.072-3.84-17.408 0.256-27.456 17.472-55.168 34.624-82.944 51.52-2.496 1.6-6.144 3.456-9.28 1.536-3.072-1.92-1.856-3.712-2.432-5.056l15.424-58.944c3.392-12.864 6.336-25.856 10.432-38.528 2.24-6.976 0.448-11.008-5.056-15.36-24.96-19.712-49.728-39.616-74.368-59.712-3.008-2.496-8.128-6.208-6.72-10.048 1.408-3.84 7.808-3.584 11.84-3.84 33.024-2.304 66.112-3.904 99.2-6.4 3.2-0.256 7.488-4.096 8.832-7.232 12.352-29.568 24.064-59.392 36.352-88.96 1.472-3.584 2.816-9.28 7.744-9.28s6.08 6.016 7.616 9.6c12.096 29.248 24.064 58.624 35.584 88.192 2.304 5.824 5.184 8 11.712 8.256 33.408 1.6 66.88 3.776 100.224 6.016 2.944 0.192 7.68 1.152 8.512 4.032s-2.944 6.4-5.44 8.512zM299.456 332.16c5.632 5.504 11.392 10.88 18.24 17.472V65.664c-41.792-3.904-64.128 15.744-64.064 55.296 0.064 47.616 0.128 95.232-0.064 142.784a52.16 52.16 0 0 0 17.536 40.96c9.728 8.896 18.88 18.368 28.352 27.456z m412.224-62.976c0.704-52.544 0.896-105.216 0.192-157.76-0.448-31.808-32.768-53.824-64.064-44.736v278.976c18.24-16.704 37.824-33.216 55.36-51.52 5.696-5.888 8.448-16.448 8.512-24.96z m0 0" fill="#c97e06" p-id="7513"></path></svg>