<?xml version="1.0" standalone="no"?><!DOCTYPE svg PUBLIC "-//W3C//DTD SVG 1.1//EN" "http://www.w3.org/Graphics/SVG/1.1/DTD/svg11.dtd"><svg t="1717417743148" class="icon" viewBox="0 0 1024 1024" version="1.1" xmlns="http://www.w3.org/2000/svg" p-id="38654" width="32" height="32" xmlns:xlink="http://www.w3.org/1999/xlink"><path d="M797.0304 552.277333a183.509333 183.509333 0 0 1-136.64-38.144 27.669333 27.669333 0 0 0-34.645333 0 183.552 183.552 0 0 1-113.706667 39.594667 183.466667 183.466667 0 0 1-113.728-39.594667 27.669333 27.669333 0 0 0-34.645333 0 183.232 183.232 0 0 1-136.384 38.186667 26.944 26.944 0 0 0-21.482667 6.741333 28.074667 28.074667 0 0 0-9.216 20.906667v237.994667C196.5824 849.28 220.817067 874.666667 250.705067 874.666667h522.666666c29.888 0 54.122667-25.386667 54.122667-56.704V580.053333c0-16.682667-14.250667-29.866667-30.464-27.733333z" fill="#737F95" p-id="38655"></path><path d="M341.393067 704m29.866666 0l281.6 0q29.866667 0 29.866667 29.866667l0 0q0 29.866667-29.866667 29.866666l-281.6 0q-29.866667 0-29.866666-29.866666l0 0q0-29.866667 29.866666-29.866667Z" fill="#FFFFFF" p-id="38656"></path><path d="M885.393067 317.930667l-60.906667-121.728A84.053333 84.053333 0 0 0 749.435733 149.333333H274.619733a84.053333 84.053333 0 0 0-75.029333 46.869334L138.6624 317.930667c-33.792 79.04 16.256 172.437333 100.522667 179.413333 47.082667 3.989333 92.608-18.197333 119.146666-58.026667 5.077333-7.68 13.568-12.309333 22.656-12.309333 9.088 0 17.578667 4.608 22.656 12.288 23.573333 35.306667 63.317333 58.496 108.373334 58.496 45.077333 0 84.821333-23.189333 108.394666-58.496 5.077333-7.68 13.568-12.288 22.656-12.288 9.088 0 17.578667 4.608 22.656 12.288 26.538667 39.850667 72.064 62.037333 119.146667 58.048 84.266667-6.976 134.336-100.373333 100.522667-179.413333z" fill="#C9CFD9" p-id="38657"></path></svg>