<?xml version="1.0" standalone="no"?><!DOCTYPE svg PUBLIC "-//W3C//DTD SVG 1.1//EN" "http://www.w3.org/Graphics/SVG/1.1/DTD/svg11.dtd"><svg t="1719386016244" class="icon" viewBox="0 0 1102 1024" version="1.1" xmlns="http://www.w3.org/2000/svg" p-id="5104" width="34.4375" height="32" xmlns:xlink="http://www.w3.org/1999/xlink"><path d="M1.496615 410.230154a26.781538 26.781538 0 0 1 3.15077-21.937231L214.252308 62.385231A133.986462 133.986462 0 0 1 326.931692 0.787692h418.89477c45.607385 0 88.064 23.197538 112.718769 61.558154l209.565538 325.907692a26.781538 26.781538 0 0 1-3.229538 33.083077L640.630154 952.910769a133.986462 133.986462 0 0 1-208.974769 0.590769L64.748308 499.003077 7.483077 428.819692a26.702769 26.702769 0 0 1-6.025846-18.589538zM820.775385 351.468308l-243.948308 313.737846a53.563077 53.563077 0 0 1-83.298462 1.654154L236.859077 362.614154a26.781538 26.781538 0 1 0-40.96 34.579692l256.748308 304.246154a107.204923 107.204923 0 0 0 166.557538-3.308308l243.948308-313.77723a26.781538 26.781538 0 0 0-42.338462-32.886154z" fill="#0A1630" p-id="5105"></path></svg>