<?xml version="1.0" standalone="no"?><!DOCTYPE svg PUBLIC "-//W3C//DTD SVG 1.1//EN" "http://www.w3.org/Graphics/SVG/1.1/DTD/svg11.dtd"><svg t="1716387294511" class="icon" viewBox="0 0 1024 1024" version="1.1" xmlns="http://www.w3.org/2000/svg" p-id="5509" xmlns:xlink="http://www.w3.org/1999/xlink" width="32" height="32"><path d="M1012.184615 417.476923c0-47.261538-35.446154-82.707692-78.76923-82.707692s-78.769231 35.446154-78.769231 78.769231c0 27.569231 11.815385 47.261538 31.507692 63.015384l-185.107692 137.846154-169.353846-315.076923c27.569231-11.815385 47.261538-35.446154 47.261538-66.953846 0-39.384615-31.507692-70.892308-74.830769-70.892308-39.384615 0-74.830769 31.507692-74.830769 70.892308 0 31.507692 19.692308 59.076923 47.261538 66.953846l-161.476923 315.076923-185.107692-137.846154c19.692308-15.753846 31.507692-35.446154 31.507692-63.015384 0-43.323077-35.446154-78.769231-78.769231-78.769231s-78.769231 35.446154-78.76923 78.769231v15.753846c11.815385 35.446154 39.384615 63.015385 78.76923 63.015384h15.753846l63.015385 275.692308c0 63.015385 153.6 110.276923 346.584615 110.276923s346.584615-51.2 346.584616-110.276923l63.015384-275.692308h15.753847c39.384615 0 66.953846-27.569231 74.830769-63.015384 3.938462-3.938462 3.938462-7.876923 3.938461-11.815385z" fill="#F2901C" p-id="5510"></path><path d="M937.353846 417.476923m-82.707692 0a82.707692 82.707692 0 1 0 165.415384 0 82.707692 82.707692 0 1 0-165.415384 0Z" fill="#FFB34C" p-id="5511"></path><path d="M90.584615 417.476923m-82.707692 0a82.707692 82.707692 0 1 0 165.415385 0 82.707692 82.707692 0 1 0-165.415385 0Z" fill="#FFB34C" p-id="5512"></path></svg>