<?xml version="1.0" standalone="no"?><!DOCTYPE svg PUBLIC "-//W3C//DTD SVG 1.1//EN" "http://www.w3.org/Graphics/SVG/1.1/DTD/svg11.dtd"><svg t="1717519209401" class="icon" viewBox="0 0 1024 1024" version="1.1" xmlns="http://www.w3.org/2000/svg" p-id="18248" width="32" height="32" xmlns:xlink="http://www.w3.org/1999/xlink"><path d="M505.719467 556.817067c-151.722667-91.682133-168.618667-285.115733-63.214934-400.315734a259.003733 259.003733 0 0 1 382.5664-0.8192c106.222933 114.858667 90.0096 309.9648-62.190933 401.134934 9.557333 4.130133 18.500267 7.441067 26.9312 11.400533 127.931733 60.416 205.2096 159.8464 229.853867 299.178667 3.310933 18.363733 3.754667 37.410133 4.3008 56.251733 0.341333 14.7456-9.1136 25.634133-21.333334 28.125867a26.385067 26.385067 0 0 1-29.149866-14.2336c-2.4576-5.12-3.106133-11.5712-3.310934-17.373867-4.471467-153.3952-104.413867-280.644267-251.153066-319.522133-188.450133-49.9712-382.2592 74.1376-414.856534 265.728-2.9696 17.749333-4.130133 35.9424-5.290666 53.794133-1.3312 20.992-11.093333 32.426667-28.433067 31.9488-16.554667-0.512-26.8288-12.731733-25.8048-32.938667 8.260267-167.1168 90.180267-284.091733 241.220267-353.962666 5.973333-2.798933 12.253867-5.290667 19.8656-8.3968m333.6192-228.898134c0-112.0256-92.501333-204.526933-204.6976-204.868266-112.708267-0.136533-205.5168 92.672-205.346134 205.5168 0.136533 110.728533 93.832533 204.1856 204.526934 204.526933 112.503467 0.512 205.5168-92.501333 205.5168-205.175467" fill="#231815" p-id="18249"></path><path d="M0 500.667733V178.653867C0 120.763733 43.2128 74.922667 100.9664 74.410667c103.867733-0.989867 207.837867-0.341333 311.739733-0.170667 16.213333 0 27.477333 10.274133 28.433067 24.6784 0.989867 14.5408-8.2944 25.8048-24.1664 28.9792a77.243733 77.243733 0 0 1-13.380267 1.1264l-301.6704-0.477867c-24.849067 0-45.841067 19.694933-47.650133 45.021867-0.341333 3.7888-0.170667 7.441067-0.170667 11.229867v633.787733c0 35.054933 19.217067 54.613333 54.272 54.613333 48.64 0.170667 26.112-0.170667 74.786134 0.170667 22.3232 0 36.078933 16.213333 30.6176 35.396267-3.652267 12.3904-12.936533 18.705067-28.637867 18.705066-51.3024 0.136533-31.4368 0.136533-82.7392-0.2048-7.441067 0-15.0528-0.955733-22.3232-2.628266C34.269867 915.3536 0.136533 873.1648 0 825.992533v-325.3248z" fill="#231815" p-id="18250"></path><path d="M229.341867 293.853867c-28.945067 0-57.890133 0.136533-86.869334 0-15.36-0.170667-26.453333-9.284267-29.2864-23.005867a25.941333 25.941333 0 0 1 15.394134-28.4672c5.290667-2.286933 11.434667-4.3008 17.032533-4.3008 55.637333-0.341333 111.377067-0.341333 166.980267 0 6.144 0 12.5952 1.809067 18.363733 4.3008a27.136 27.136 0 0 1 15.5648 29.627733c-2.833067 12.868267-14.2336 21.845333-29.149867 21.981867-29.252267 0-58.538667-0.136533-88.029866-0.136533m0.853333 359.901866H143.325867c-17.7152 0-30.276267-11.093333-30.6176-26.487466-0.341333-15.189333 13.243733-27.784533 30.754133-27.921067 57.617067-0.170667 115.2-0.170667 172.7488 0 18.2272 0 30.958933 11.5712 30.958933 27.272533 0 15.735467-12.731733 26.999467-30.958933 26.999467-28.945067 0.136533-57.378133 0.136533-86.016 0.136533m-0.853333-180.189866c-29.7984 0-59.392 0.170667-89.1904-0.170667a26.487467 26.487467 0 0 1-26.487467-20.343467 25.088 25.088 0 0 1 11.127467-28.296533c5.12-3.140267 11.912533-4.949333 18.0224-5.12 57.924267-0.3072 115.8144-0.3072 173.909333-0.170667 18.193067 0 30.583467 11.912533 30.276267 27.784534-0.341333 15.223467-12.731733 26.146133-30.6176 26.146133-28.945067 0.3072-58.0608 0.170667-87.04 0.170667" fill="#231815" p-id="18251"></path></svg>