<?xml version="1.0" standalone="no"?><!DOCTYPE svg PUBLIC "-//W3C//DTD SVG 1.1//EN" "http://www.w3.org/Graphics/SVG/1.1/DTD/svg11.dtd"><svg t="1732713460543" class="icon" viewBox="0 0 1024 1024" version="1.1" xmlns="http://www.w3.org/2000/svg" p-id="6336" width="32" height="32" xmlns:xlink="http://www.w3.org/1999/xlink"><path d="M405.469867 520.516267l78.9504 0.017066c90.4192 0 163.720533 74.205867 163.720533 165.717334H393.4208l0.034133 36.829866 291.072-0.017066V686.250667c0-39.867733-11.5712-77.4656-32.256-110.523734l105.028267 0.034134c72.482133 0 135.0656 42.9056 164.3008 105.0112C835.566933 795.716267 696.234667 870.4 538.999467 870.4c-100.471467 0-185.565867-21.742933-254.702934-59.835733l0.0512-342.664534a251.989333 251.989333 0 0 1 121.122134 52.616534z m-157.525334 276.224c0 20.343467-16.298667 36.829867-36.4032 36.829866H138.786133C118.6816 833.570133 102.4 817.083733 102.4 796.740267v-331.434667c0-20.360533 16.2816-36.846933 36.386133-36.846933h72.7552c20.104533 0 36.386133 16.4864 36.386134 36.829866v331.451734z m472.968534-515.584c60.279467 0 109.141333 49.4592 109.141333 110.472533 0 61.0304-48.861867 110.4896-109.141333 110.4896-60.279467 0-109.1584-49.4592-109.1584-110.4896 0-61.013333 48.878933-110.472533 109.1584-110.472533zM466.2272 170.666667c60.279467 0 109.1584 49.4592 109.1584 110.4896 0 61.013333-48.878933 110.472533-109.1584 110.472533s-109.141333-49.4592-109.141333-110.472533c0-61.0304 48.861867-110.4896 109.141333-110.4896z" fill="#FF6700" p-id="6337"></path></svg>