<?xml version="1.0" standalone="no"?><!DOCTYPE svg PUBLIC "-//W3C//DTD SVG 1.1//EN" "http://www.w3.org/Graphics/SVG/1.1/DTD/svg11.dtd"><svg t="1718196647632" class="icon" viewBox="0 0 1024 1024" version="1.1" xmlns="http://www.w3.org/2000/svg" p-id="14785" width="32" height="32" xmlns:xlink="http://www.w3.org/1999/xlink"><path d="M711.111111 415.288889v477.866667H978.488889V420.977778l-113.777778-147.911111-153.6 142.222222z m-335.644444 483.555555h267.377777V466.488889l-130.844444 108.088889-136.533333-73.955556v398.222222z m-324.266667 0h267.377778V466.488889l-73.955556-51.2-193.422222 164.977778v318.577777z" fill="#f3a11c" p-id="14786"></path><path d="M972.8 950.044444H51.2c-22.755556 0-39.822222 17.066667-39.822222 34.133334 0 22.755556 17.066667 39.822222 39.822222 39.822222h921.6c22.755556 0 39.822222-17.066667 39.822222-39.822222-5.688889-22.755556-17.066667-34.133333-39.822222-34.133334zM91.022222 460.8L238.933333 341.333333l278.755556 170.666667 329.955555-312.888889 5.688889-5.688889 56.888889 56.888889L995.555556 0l-256 79.644444 62.577777 62.577778-5.688889 5.688889-290.133333 267.377778-273.066667-164.977778L45.511111 409.6c-17.066667 11.377778-17.066667 34.133333-5.688889 51.2 17.066667 11.377778 34.133333 17.066667 51.2 0z" fill="#f3a11c" p-id="14787"></path></svg>