<?xml version="1.0" standalone="no"?><!DOCTYPE svg PUBLIC "-//W3C//DTD SVG 1.1//EN" "http://www.w3.org/Graphics/SVG/1.1/DTD/svg11.dtd"><svg t="1717603946116" class="icon" viewBox="0 0 1024 1024" version="1.1" xmlns="http://www.w3.org/2000/svg" p-id="8005" width="32" height="32" xmlns:xlink="http://www.w3.org/1999/xlink"><path d="M662.588235 0H286.117647A286.418824 286.418824 0 0 0 0 286.117647v451.764706A286.418824 286.418824 0 0 0 286.117647 1024h451.764706a286.418824 286.418824 0 0 0 286.117647-286.117647V312.018824z m13.552941 130.710588l210.82353 182.512941h-180.705882a30.117647 30.117647 0 0 1-30.117648-30.117647zM737.882353 933.647059h-451.764706A196.065882 196.065882 0 0 1 90.352941 737.882353v-451.764706A196.065882 196.065882 0 0 1 286.117647 90.352941h328.583529v192.752941a90.352941 90.352941 0 0 0 90.352942 90.352942H933.647059v364.423529a196.065882 196.065882 0 0 1-195.764706 195.764706z" fill="#6B6B6B" p-id="8006"></path><path d="M210.823529 424.658824h240.941177a30.117647 30.117647 0 0 0 0-60.235295H210.823529a30.117647 30.117647 0 0 0 0 60.235295zM632.470588 545.129412H210.823529a30.117647 30.117647 0 1 0 0 60.235294h421.647059a30.117647 30.117647 0 0 0 0-60.235294zM632.470588 725.835294H210.823529a30.117647 30.117647 0 1 0 0 60.235294h421.647059a30.117647 30.117647 0 0 0 0-60.235294z" fill="#6B6B6B" p-id="8007"></path></svg>