<?xml version="1.0" standalone="no"?><!DOCTYPE svg PUBLIC "-//W3C//DTD SVG 1.1//EN" "http://www.w3.org/Graphics/SVG/1.1/DTD/svg11.dtd"><svg t="1718198305727" class="icon" viewBox="0 0 1024 1024" version="1.1" xmlns="http://www.w3.org/2000/svg" p-id="26794" width="32" height="32" xmlns:xlink="http://www.w3.org/1999/xlink"><path d="M661.333333 85.333333a21.333333 21.333333 0 1 0 42.666667 0 21.333333 21.333333 0 0 0-42.666667 0z m21.333334 64a64 64 0 1 1 0-128 64 64 0 0 1 0 128zM234.666667 298.666667a106.666667 106.666667 0 0 1 213.333333 0v85.333333h-42.666667V298.666667a64 64 0 1 0-128 0v85.333333h-42.666666V298.666667z m-170.666667 170.666666A64 64 0 0 1 128 405.333333h768a64 64 0 0 1 64 64v341.333334a64 64 0 0 1-64 64h-42.666667v-42.666667h42.666667a21.333333 21.333333 0 0 0 21.333333-21.333333v-341.333334a21.333333 21.333333 0 0 0-21.333333-21.333333H128a21.333333 21.333333 0 0 0-21.333333 21.333333v341.333334a21.333333 21.333333 0 0 0 21.333333 21.333333h42.666667v42.666667H128A64 64 0 0 1 64 810.666667v-341.333334zM682.666667 192A106.666667 106.666667 0 0 0 576 298.666667v85.333333h42.666667V298.666667a64 64 0 0 1 128 0v85.333333h42.666666V298.666667A106.666667 106.666667 0 0 0 682.666667 192zM234.666667 853.333333a106.666667 106.666667 0 0 1 213.333333 0v128h-42.666667v-128a64 64 0 0 0-128 0v128h-42.666666v-128zM682.666667 746.666667a106.666667 106.666667 0 0 0-106.666667 106.666666v128h42.666667v-128a64 64 0 0 1 128 0v128h42.666666v-128a106.666667 106.666667 0 0 0-106.666666-106.666666z m-341.333334-640a21.333333 21.333333 0 1 1 0-42.666667 21.333333 21.333333 0 0 1 0 42.666667zM277.333333 85.333333a64 64 0 1 0 128 0 64 64 0 0 0-128 0z m42.666667 554.666667a21.333333 21.333333 0 1 0 42.666667 0 21.333333 21.333333 0 0 0-42.666667 0z m21.333333 64a64 64 0 1 1 0-128 64 64 0 0 1 0 128z m341.333334-42.666667a21.333333 21.333333 0 1 1 0-42.666666 21.333333 21.333333 0 0 1 0 42.666666z m-64-21.333333a64 64 0 1 0 128 0 64 64 0 0 0-128 0z" fill="#4D5262" p-id="26795"></path></svg>