<?xml version="1.0" standalone="no"?><!DOCTYPE svg PUBLIC "-//W3C//DTD SVG 1.1//EN" "http://www.w3.org/Graphics/SVG/1.1/DTD/svg11.dtd"><svg t="1717519057270" class="icon" viewBox="0 0 1024 1024" version="1.1" xmlns="http://www.w3.org/2000/svg" p-id="15489" width="32" height="32" xmlns:xlink="http://www.w3.org/1999/xlink"><path d="M1023.984494 381.815439v-48.478352c0-24.634141-9.830251-48.273555-27.355014-65.681291a93.592183 93.592183 0 0 0-66.003115-27.208731H93.358129c-24.751168 0-48.507608 9.771738-66.003115 27.208731A92.655968 92.655968 0 0 0 0 333.337087v236.569675c0 15.944901 12.989975 28.847106 28.964133 28.847106 16.032672 0 29.022646-12.902205 29.022646-28.847106v-236.569675c0-19.426449 15.827875-35.19581 35.37135-35.19581h837.268236c19.543475 0 35.400607 15.769361 35.400607 35.19581v19.016855h-260.969763a125.452729 125.452729 0 0 0-117.260853 124.926108 125.452729 125.452729 0 0 0 117.29011 124.926109h260.911249v307.575685a35.10804 35.10804 0 0 1-10.356872 24.868195 35.45912 35.45912 0 0 1-25.014478 10.327615H93.358129a35.28358 35.28358 0 0 1-35.400607-35.19581v-137.916083H481.272712l-63.779605 63.487039a28.876363 28.876363 0 0 0 13.048488 48.449094 29.198186 29.198186 0 0 0 28.086431-7.489715l111.351-111.936133a28.788593 28.788593 0 0 0 8.68924-20.187123 28.232715 28.232715 0 0 0-10.444642-21.357391l-110.736609-110.209988a29.198186 29.198186 0 0 0-41.164176 0 28.876363 28.876363 0 0 0 0 40.959379l62.609337 62.316771H28.99339a29.051903 29.051903 0 0 0-20.47969 8.455186 28.788593 28.788593 0 0 0-8.5137 20.39192v165.007787c0 24.663398 9.830251 48.273555 27.355014 65.710548 17.495506 17.407736 41.251947 27.208731 66.003115 27.208731h837.268236c24.751168 0 48.507608-9.800994 66.003115-27.208731A92.655968 92.655968 0 0 0 1023.984494 909.781844V573.944187a28.788593 28.788593 0 0 0-8.484443-20.39192 29.051903 29.051903 0 0 0-20.508947-8.455186h-289.933895a67.64149 67.64149 0 0 1-61.556096-67.20264c0-34.873986 26.68211-64.013659 61.585353-67.231896h289.904638a29.051903 29.051903 0 0 0 20.47969-8.455186 28.788593 28.788593 0 0 0 8.5137-20.39192zM245.258915 187.346155h533.466664a29.051903 29.051903 0 0 0 21.532931-10.444642 28.759336 28.759336 0 0 0 6.290191-22.995766L770.592217 21.1681a28.99339 28.99339 0 0 0-35.37135-20.187123L237.739943 130.822211a29.110416 29.110416 0 0 0-25.219275 32.591964 29.198186 29.198186 0 0 0 32.767503 25.102248v-1.170268z m477.206031-125.774553l18.548747 68.665475h-275.393315l256.873824-68.665475z" fill="#979797" p-id="15490"></path><path d="M710.967062 426.66596c-15.623078 0-28.320485 14.335783-28.320485 32.006829 0 17.671047 12.697408 32.00683 28.320485 32.00683h71.386348c15.623078 0 28.291229-14.335783 28.291229-32.00683 0-17.671047-12.668151-32.00683-28.320486-32.006829h-71.357091z" fill="#979797" p-id="15491"></path></svg>